<svg width="130" height="37" viewBox="0 0 130 37" fill="none" xmlns="http://www.w3.org/2000/svg">
<path d="M19.043 0.171969C15.429 0.976348 11.8428 3.00117 9.5632 5.58073C8.062 7.30044 6.2828 10.6844 5.8102 12.8201L5.4766 14.3457L2.7244 15.788C1.2232 16.5647 0 17.3136 0 17.4523C0 17.5632 0.6672 17.6742 1.4734 17.7019C2.2518 17.7019 3.475 17.8128 4.1422 17.8961L5.3654 18.0902L5.7268 19.8931C6.2272 22.334 8.062 25.9121 9.7578 27.7705C11.398 29.5734 13.9834 31.3209 16.124 32.1253C17.6252 32.68 17.6808 32.7077 18.348 34.5107C19.043 36.369 19.7936 37.2012 19.5434 35.8698C19.46 35.4815 19.4878 34.7326 19.5712 34.2055L19.738 33.2902L22.6014 33.1515C30.1908 32.7909 36.3068 27.9092 38.2528 20.6698C38.8922 18.2289 38.7532 14.1793 37.947 11.6552C37.5578 10.4625 37.0018 9.07562 36.696 8.54861C36.3624 8.04934 36.1678 7.57781 36.2234 7.4946C36.3068 7.43912 37.4466 7.30044 38.781 7.21722C41.7278 7.02306 41.3942 6.71795 37.6968 6.24642C35.028 5.91357 35.028 5.91357 33.4712 4.47124C31.8032 2.89022 29.5514 1.6143 27.0494 0.726713C25.2424 0.0887572 20.85 -0.216352 19.043 0.171969ZM25.8262 0.893137C26.827 1.14277 28.4116 1.69752 29.3568 2.16905C31.2472 3.11211 34.3608 5.69168 33.9994 6.05226C33.5546 6.49606 31.8032 6.35737 30.58 5.80263C27.2996 4.24934 23.1574 5.88584 20.5442 9.74131L19.321 11.5165H16.958C14.2892 11.5442 12.093 11.9603 8.618 13.2085C7.3392 13.6523 6.2272 13.9851 6.1716 13.9296C6.116 13.8742 6.2828 13.1253 6.533 12.2377C7.9508 7.41138 11.5648 3.38949 16.1796 1.55883C19.0708 0.421604 22.7126 0.171969 25.8262 0.893137ZM30.1074 6.05226C30.6634 6.19095 31.136 6.41284 31.1082 6.52379C31.1082 6.63474 30.3298 7.21722 29.3846 7.82744C27.8 8.85372 26.7436 10.1019 25.159 12.7924C24.9088 13.2362 24.7698 13.2085 23.2686 12.5705C22.379 12.1822 21.4616 11.8493 21.1836 11.8493C20.9334 11.8493 20.5442 11.7384 20.3218 11.5997C19.4322 11.0172 23.213 6.96759 25.3814 6.19095C26.7714 5.71941 28.6618 5.6362 30.1074 6.05226ZM35.5284 7.13401C33.2488 7.74423 31.5808 8.57635 30.3298 9.71357C29.2178 10.7676 27.8834 13.4304 27.6332 15.0946C27.4664 16.2873 26.966 17.0362 26.966 16.1209C26.966 15.8712 26.6602 15.2333 26.271 14.734C25.4092 13.5968 25.4092 13.4026 26.3822 11.6829C28.2726 8.40993 31.4974 6.60701 35.445 6.60701L37.391 6.63474L35.5284 7.13401ZM36.6404 9.63036C39.7818 15.899 38.3084 23.4712 32.9708 28.3807C29.885 31.2654 26.2988 32.6523 22.0454 32.6523H19.738L19.9048 31.9034C20.294 30.3223 21.4616 28.2698 23.5188 25.5793C25.9374 22.4172 27.1328 20.1428 27.5498 17.7851C28.4116 13.1807 29.7182 10.4902 31.6364 9.29752C32.9708 8.43766 34.7778 7.68876 35.306 7.77197C35.5284 7.79971 36.14 8.63182 36.6404 9.63036ZM18.7372 12.0712C18.8206 12.2099 18.5148 13.3472 18.07 14.6508C17.6252 15.9545 17.097 17.9793 16.9302 19.172L16.5966 21.3355L15.707 21.1968C15.2066 21.1136 13.4274 20.4201 11.7594 19.6712C8.7292 18.2844 6.394 17.6187 3.058 17.2304L1.251 17.0362L4.309 15.5661C7.7562 13.9296 11.8706 12.515 14.3448 12.1545C16.541 11.8216 18.5704 11.7939 18.7372 12.0712ZM23.2964 13.0975C24.0748 13.4581 24.742 13.8187 24.742 13.9019C24.742 13.9851 24.3528 15.1223 23.8802 16.4537C22.8238 19.3661 21.6006 20.753 19.6546 21.2245C17.4862 21.7793 17.236 21.6961 17.236 20.5034C17.236 19.2274 17.8198 16.8698 18.7928 14.0961L19.5434 12.0712L20.6832 12.2377C21.3226 12.3486 22.4902 12.7369 23.2964 13.0975ZM25.993 15.1223C26.41 15.6771 26.549 16.315 26.549 17.6742C26.549 19.9763 25.576 22.1121 22.9628 25.5238C20.711 28.4639 19.4878 30.9603 19.2654 33.0406C19.182 33.9004 19.0152 34.5107 18.904 34.4552C18.7928 34.372 18.4314 33.3457 18.1256 32.1807C16.958 27.8815 16.5966 21.8625 17.4862 22.0566C17.6808 22.1121 18.5426 22.0012 19.4044 21.807C21.684 21.3355 23.2964 19.6435 24.2972 16.6201C24.7142 15.372 25.159 14.3457 25.2424 14.3457C25.3536 14.3457 25.6872 14.7063 25.993 15.1223ZM8.0898 18.6727C8.9238 18.9223 10.3972 19.5326 11.398 20.0318C12.3988 20.5311 13.9 21.1413 14.7618 21.4187L16.3186 21.918L16.5132 24.9968C16.6244 26.6888 16.8746 28.9355 17.097 29.9895C17.3194 31.0435 17.4584 31.9588 17.4028 32.0143C17.3472 32.0698 16.5132 31.7647 15.5402 31.3209C12.0652 29.7399 9.1184 26.9384 7.6172 23.7763C6.4496 21.3632 5.7268 18.2289 6.3384 18.2289C6.4774 18.2289 7.2558 18.4231 8.0898 18.6727Z" fill="black"/>
<path d="M64.2777 13.5455C64.2777 13.8627 64.2176 14.1326 64.0973 14.3551C63.978 14.5777 63.8151 14.7476 63.6087 14.8651C63.4032 14.9815 63.1721 15.0398 62.9155 15.0398C62.657 15.0398 62.425 14.9811 62.2195 14.8636C62.014 14.7462 61.8516 14.5762 61.7322 14.3537C61.6129 14.1312 61.5533 13.8617 61.5533 13.5455C61.5533 13.2282 61.6129 12.9583 61.7322 12.7358C61.8516 12.5133 62.014 12.3437 62.2195 12.2273C62.425 12.1098 62.657 12.0511 62.9155 12.0511C63.1721 12.0511 63.4032 12.1098 63.6087 12.2273C63.8151 12.3437 63.978 12.5133 64.0973 12.7358C64.2176 12.9583 64.2777 13.2282 64.2777 13.5455ZM63.6541 13.5455C63.6541 13.34 63.6233 13.1667 63.5618 13.0256C63.5012 12.8845 63.4155 12.7775 63.3047 12.7045C63.1939 12.6316 63.0642 12.5952 62.9155 12.5952C62.7668 12.5952 62.6371 12.6316 62.5263 12.7045C62.4155 12.7775 62.3293 12.8845 62.2678 13.0256C62.2071 13.1667 62.1768 13.34 62.1768 13.5455C62.1768 13.7509 62.2071 13.9242 62.2678 14.0653C62.3293 14.2064 62.4155 14.3134 62.5263 14.3864C62.6371 14.4593 62.7668 14.4957 62.9155 14.4957C63.0642 14.4957 63.1939 14.4593 63.3047 14.3864C63.4155 14.3134 63.5012 14.2064 63.5618 14.0653C63.6233 13.9242 63.6541 13.7509 63.6541 13.5455ZM64.7219 15V12.8182H65.3086V13.1989H65.3313C65.3711 13.0634 65.4379 12.9612 65.5316 12.892C65.6254 12.822 65.7333 12.7869 65.8555 12.7869C65.8858 12.7869 65.9184 12.7888 65.9535 12.7926C65.9885 12.7964 66.0193 12.8016 66.0458 12.8082V13.3452C66.0174 13.3366 65.9781 13.3291 65.9279 13.3224C65.8777 13.3158 65.8318 13.3125 65.7901 13.3125C65.7011 13.3125 65.6216 13.3319 65.5515 13.3707C65.4824 13.4086 65.4274 13.4616 65.3867 13.5298C65.3469 13.598 65.3271 13.6766 65.3271 13.7656V15H64.7219ZM67.0611 15.0355C66.8954 15.0355 66.7453 14.9929 66.6108 14.9077C66.4773 14.8215 66.3712 14.6951 66.2926 14.5284C66.215 14.3608 66.1761 14.1553 66.1761 13.9119C66.1761 13.6619 66.2164 13.4541 66.2969 13.2884C66.3774 13.1217 66.4844 12.9972 66.6179 12.9148C66.7524 12.8314 66.8996 12.7898 67.0597 12.7898C67.1818 12.7898 67.2836 12.8106 67.3651 12.8523C67.4474 12.893 67.5137 12.9441 67.5639 13.0057C67.6151 13.0663 67.6539 13.1259 67.6804 13.1847H67.6989V12.0909H68.3026V15H67.706V14.6506H67.6804C67.652 14.7112 67.6117 14.7713 67.5597 14.831C67.5085 14.8897 67.4418 14.9384 67.3594 14.9773C67.2779 15.0161 67.1785 15.0355 67.0611 15.0355ZM67.2528 14.554C67.3504 14.554 67.4328 14.5275 67.5 14.4744C67.5682 14.4205 67.6203 14.3452 67.6562 14.2486C67.6932 14.152 67.7116 14.0388 67.7116 13.9091C67.7116 13.7794 67.6937 13.6667 67.6577 13.571C67.6217 13.4754 67.5696 13.4015 67.5014 13.3494C67.4332 13.2973 67.3504 13.2713 67.2528 13.2713C67.1534 13.2713 67.0696 13.2983 67.0014 13.3523C66.9332 13.4062 66.8816 13.4811 66.8466 13.5767C66.8116 13.6723 66.794 13.7831 66.794 13.9091C66.794 14.036 66.8116 14.1482 66.8466 14.2457C66.8826 14.3423 66.9342 14.4181 67.0014 14.473C67.0696 14.527 67.1534 14.554 67.2528 14.554ZM69.7944 15.0426C69.57 15.0426 69.3768 14.9972 69.2148 14.9062C69.0539 14.8144 68.9298 14.6847 68.8427 14.517C68.7556 14.3485 68.712 14.1491 68.712 13.919C68.712 13.6946 68.7556 13.4976 68.8427 13.3281C68.9298 13.1586 69.0524 13.0265 69.2106 12.9318C69.3697 12.8371 69.5562 12.7898 69.7702 12.7898C69.9142 12.7898 70.0482 12.813 70.1722 12.8594C70.2972 12.9048 70.4061 12.9735 70.4989 13.0653C70.5927 13.1572 70.6656 13.2727 70.7177 13.4119C70.7698 13.5502 70.7958 13.7121 70.7958 13.8977V14.0639H68.9535V13.6889H70.2262C70.2262 13.6018 70.2073 13.5246 70.1694 13.4574C70.1315 13.3902 70.079 13.3376 70.0117 13.2997C69.9454 13.2609 69.8683 13.2415 69.7802 13.2415C69.6883 13.2415 69.6069 13.2628 69.5359 13.3054C69.4658 13.3471 69.4109 13.4034 69.3711 13.4744C69.3313 13.5445 69.311 13.6226 69.31 13.7088V14.0653C69.31 14.1733 69.3299 14.2666 69.3697 14.3452C69.4104 14.4238 69.4677 14.4844 69.5415 14.527C69.6154 14.5696 69.703 14.5909 69.8043 14.5909C69.8716 14.5909 69.9331 14.5814 69.989 14.5625C70.0449 14.5436 70.0927 14.5152 70.1325 14.4773C70.1722 14.4394 70.2025 14.393 70.2234 14.3381L70.783 14.375C70.7546 14.5095 70.6964 14.6269 70.6083 14.7273C70.5212 14.8267 70.4085 14.9044 70.2702 14.9602C70.1329 15.0152 69.9743 15.0426 69.7944 15.0426ZM71.7958 13.7386V15H71.1907V12.8182H71.7674V13.2031H71.793C71.8413 13.0762 71.9222 12.9759 72.0359 12.902C72.1495 12.8272 72.2873 12.7898 72.4492 12.7898C72.6007 12.7898 72.7328 12.8229 72.8455 12.8892C72.9582 12.9555 73.0458 13.0502 73.1083 13.1733C73.1708 13.2955 73.2021 13.4413 73.2021 13.6108V15H72.5969V13.7188C72.5979 13.5852 72.5638 13.4811 72.4947 13.4062C72.4255 13.3305 72.3304 13.2926 72.2092 13.2926C72.1277 13.2926 72.0558 13.3101 71.9933 13.3452C71.9317 13.3802 71.8834 13.4313 71.8484 13.4986C71.8143 13.5649 71.7968 13.6449 71.7958 13.7386ZM74.6161 15V12.0909H75.2312V13.2912H76.4798V12.0909H77.0934V15H76.4798V13.7983H75.2312V15H74.6161ZM79.4045 13.4403L78.8505 13.4744C78.841 13.4271 78.8207 13.3845 78.7894 13.3466C78.7582 13.3078 78.717 13.277 78.6658 13.2543C78.6156 13.2306 78.5555 13.2188 78.4854 13.2188C78.3917 13.2188 78.3126 13.2386 78.2482 13.2784C78.1838 13.3172 78.1516 13.3693 78.1516 13.4347C78.1516 13.4867 78.1725 13.5308 78.2141 13.5668C78.2558 13.6027 78.3273 13.6316 78.4286 13.6534L78.8235 13.733C79.0356 13.7765 79.1938 13.8466 79.2979 13.9432C79.4021 14.0398 79.4542 14.1667 79.4542 14.3239C79.4542 14.4669 79.4121 14.5923 79.3278 14.7003C79.2444 14.8082 79.1299 14.8925 78.984 14.9531C78.8391 15.0128 78.672 15.0426 78.4826 15.0426C78.1938 15.0426 77.9637 14.9825 77.7923 14.8622C77.6218 14.741 77.5219 14.5762 77.4925 14.3679L78.0877 14.3366C78.1057 14.4247 78.1493 14.492 78.2184 14.5384C78.2875 14.5838 78.3761 14.6065 78.484 14.6065C78.5901 14.6065 78.6753 14.5862 78.7397 14.5455C78.805 14.5038 78.8382 14.4503 78.8391 14.3849C78.8382 14.33 78.815 14.285 78.7695 14.25C78.7241 14.214 78.654 14.1866 78.5593 14.1676L78.1815 14.0923C77.9684 14.0497 77.8098 13.9759 77.7056 13.8707C77.6024 13.7656 77.5508 13.6316 77.5508 13.4688C77.5508 13.3286 77.5887 13.2079 77.6644 13.1065C77.7411 13.0052 77.8486 12.9271 77.9869 12.8722C78.1261 12.8172 78.2889 12.7898 78.4755 12.7898C78.7511 12.7898 78.9679 12.848 79.1261 12.9645C79.2852 13.081 79.378 13.2396 79.4045 13.4403ZM81.2344 14.071V12.8182H81.8395V15H81.2585V14.6037H81.2358C81.1866 14.7315 81.1046 14.8343 80.9901 14.9119C80.8764 14.9896 80.7377 15.0284 80.5739 15.0284C80.428 15.0284 80.2997 14.9953 80.1889 14.929C80.0781 14.8627 79.9915 14.7685 79.929 14.6463C79.8674 14.5241 79.8362 14.3778 79.8352 14.2074V12.8182H80.4403V14.0994C80.4413 14.2282 80.4759 14.33 80.544 14.4048C80.6122 14.4796 80.7036 14.517 80.8182 14.517C80.8911 14.517 80.9593 14.5005 81.0227 14.4673C81.0862 14.4332 81.1373 14.383 81.1761 14.3168C81.2159 14.2505 81.2353 14.1686 81.2344 14.071ZM83.0902 12.0909H83.7791L84.4425 13.3438H84.4709L85.1342 12.0909H85.8232L84.7621 13.9716V15H84.1513V13.9716L83.0902 12.0909ZM87.3867 14.071V12.8182H87.9918V15H87.4109V14.6037H87.3881C87.3389 14.7315 87.257 14.8343 87.1424 14.9119C87.0288 14.9896 86.89 15.0284 86.7262 15.0284C86.5804 15.0284 86.4521 14.9953 86.3413 14.929C86.2305 14.8627 86.1438 14.7685 86.0813 14.6463C86.0198 14.5241 85.9885 14.3778 85.9876 14.2074V12.8182H86.5927V14.0994C86.5936 14.2282 86.6282 14.33 86.6964 14.4048C86.7646 14.4796 86.8559 14.517 86.9705 14.517C87.0434 14.517 87.1116 14.5005 87.1751 14.4673C87.2385 14.4332 87.2897 14.383 87.3285 14.3168C87.3683 14.2505 87.3877 14.1686 87.3867 14.071ZM89.081 13.7386V15H88.4759V12.8182H89.0526V13.2031H89.0781C89.1264 13.0762 89.2074 12.9759 89.321 12.902C89.4347 12.8272 89.5724 12.7898 89.7344 12.7898C89.8859 12.7898 90.018 12.8229 90.1307 12.8892C90.2434 12.9555 90.331 13.0502 90.3935 13.1733C90.456 13.2955 90.4872 13.4413 90.4872 13.6108V15H89.8821V13.7188C89.883 13.5852 89.849 13.4811 89.7798 13.4062C89.7107 13.3305 89.6155 13.2926 89.4943 13.2926C89.4129 13.2926 89.3409 13.3101 89.2784 13.3452C89.2169 13.3802 89.1686 13.4313 89.1335 13.4986C89.0994 13.5649 89.0819 13.6449 89.081 13.7386ZM43.5966 20V17.0909H44.7614C44.9754 17.0909 45.1539 17.1226 45.2969 17.1861C45.4399 17.2495 45.5473 17.3376 45.6193 17.4503C45.6913 17.562 45.7273 17.6908 45.7273 17.8366C45.7273 17.9503 45.7045 18.0502 45.6591 18.1364C45.6136 18.2216 45.5511 18.2917 45.4716 18.3466C45.393 18.4006 45.303 18.4389 45.2017 18.4616V18.4901C45.3125 18.4948 45.4162 18.526 45.5128 18.5838C45.6103 18.6416 45.6894 18.7225 45.75 18.8267C45.8106 18.9299 45.8409 19.053 45.8409 19.196C45.8409 19.3504 45.8026 19.4882 45.7259 19.6094C45.6501 19.7296 45.5379 19.8248 45.3892 19.8949C45.2405 19.965 45.0573 20 44.8395 20H43.5966ZM44.2116 19.4972H44.7131C44.8845 19.4972 45.0095 19.4645 45.0881 19.3991C45.1667 19.3329 45.206 19.2448 45.206 19.1349C45.206 19.0545 45.1866 18.9834 45.1477 18.9219C45.1089 18.8603 45.0535 18.812 44.9815 18.777C44.9105 18.742 44.8258 18.7244 44.7273 18.7244H44.2116V19.4972ZM44.2116 18.3082H44.6676C44.7519 18.3082 44.8267 18.2936 44.892 18.2642C44.9583 18.2339 45.0104 18.1913 45.0483 18.1364C45.0871 18.0814 45.1065 18.0156 45.1065 17.9389C45.1065 17.8338 45.0691 17.7491 44.9943 17.6847C44.9205 17.6203 44.8153 17.5881 44.679 17.5881H44.2116V18.3082ZM47.6289 19.071V17.8182H48.234V20H47.6531V19.6037H47.6303C47.5811 19.7315 47.4992 19.8343 47.3846 19.9119C47.271 19.9896 47.1322 20.0284 46.9684 20.0284C46.8226 20.0284 46.6942 19.9953 46.5835 19.929C46.4727 19.8627 46.386 19.7685 46.3235 19.6463C46.262 19.5241 46.2307 19.3778 46.2298 19.2074V17.8182H46.8349V19.0994C46.8358 19.2282 46.8704 19.33 46.9386 19.4048C47.0067 19.4796 47.0981 19.517 47.2127 19.517C47.2856 19.517 47.3538 19.5005 47.4173 19.4673C47.4807 19.4332 47.5318 19.383 47.5707 19.3168C47.6104 19.2505 47.6299 19.1686 47.6289 19.071ZM49.522 20.0355C49.3563 20.0355 49.2062 19.9929 49.0717 19.9077C48.9382 19.8215 48.8321 19.6951 48.7536 19.5284C48.6759 19.3608 48.6371 19.1553 48.6371 18.9119C48.6371 18.6619 48.6773 18.4541 48.7578 18.2884C48.8383 18.1217 48.9453 17.9972 49.0788 17.9148C49.2133 17.8314 49.3606 17.7898 49.5206 17.7898C49.6428 17.7898 49.7446 17.8106 49.826 17.8523C49.9084 17.893 49.9747 17.9441 50.0249 18.0057C50.076 18.0663 50.1148 18.1259 50.1413 18.1847H50.1598V17.0909H50.7635V20H50.1669V19.6506H50.1413C50.1129 19.7112 50.0727 19.7713 50.0206 19.831C49.9695 19.8897 49.9027 19.9384 49.8203 19.9773C49.7389 20.0161 49.6394 20.0355 49.522 20.0355ZM49.7138 19.554C49.8113 19.554 49.8937 19.5275 49.9609 19.4744C50.0291 19.4205 50.0812 19.3452 50.1172 19.2486C50.1541 19.152 50.1726 19.0388 50.1726 18.9091C50.1726 18.7794 50.1546 18.6667 50.1186 18.571C50.0826 18.4754 50.0305 18.4015 49.9624 18.3494C49.8942 18.2973 49.8113 18.2713 49.7138 18.2713C49.6143 18.2713 49.5305 18.2983 49.4624 18.3523C49.3942 18.4062 49.3426 18.4811 49.3075 18.5767C49.2725 18.6723 49.255 18.7831 49.255 18.9091C49.255 19.036 49.2725 19.1482 49.3075 19.2457C49.3435 19.3423 49.3951 19.4181 49.4624 19.473C49.5305 19.527 49.6143 19.554 49.7138 19.554ZM51.261 20V17.8182H51.8661V20H51.261ZM51.565 17.5369C51.475 17.5369 51.3978 17.5071 51.3335 17.4474C51.27 17.3868 51.2383 17.3144 51.2383 17.2301C51.2383 17.1468 51.27 17.0753 51.3335 17.0156C51.3978 16.955 51.475 16.9247 51.565 16.9247C51.6549 16.9247 51.7317 16.955 51.7951 17.0156C51.8595 17.0753 51.8917 17.1468 51.8917 17.2301C51.8917 17.3144 51.8595 17.3868 51.7951 17.4474C51.7317 17.5071 51.6549 17.5369 51.565 17.5369ZM54.1662 18.4403L53.6122 18.4744C53.6027 18.4271 53.5824 18.3845 53.5511 18.3466C53.5199 18.3078 53.4787 18.277 53.4276 18.2543C53.3774 18.2306 53.3172 18.2188 53.2472 18.2188C53.1534 18.2188 53.0743 18.2386 53.0099 18.2784C52.9455 18.3172 52.9134 18.3693 52.9134 18.4347C52.9134 18.4867 52.9342 18.5308 52.9759 18.5668C53.0175 18.6027 53.089 18.6316 53.1903 18.6534L53.5852 18.733C53.7973 18.7765 53.9555 18.8466 54.0597 18.9432C54.1638 19.0398 54.2159 19.1667 54.2159 19.3239C54.2159 19.4669 54.1738 19.5923 54.0895 19.7003C54.0062 19.8082 53.8916 19.8925 53.7457 19.9531C53.6009 20.0128 53.4337 20.0426 53.2443 20.0426C52.9555 20.0426 52.7254 19.9825 52.554 19.8622C52.3835 19.741 52.2836 19.5762 52.2543 19.3679L52.8494 19.3366C52.8674 19.4247 52.911 19.492 52.9801 19.5384C53.0492 19.5838 53.1378 19.6065 53.2457 19.6065C53.3518 19.6065 53.437 19.5862 53.5014 19.5455C53.5668 19.5038 53.5999 19.4503 53.6009 19.3849C53.5999 19.33 53.5767 19.285 53.5312 19.25C53.4858 19.214 53.4157 19.1866 53.321 19.1676L52.9432 19.0923C52.7301 19.0497 52.5715 18.9759 52.4673 18.8707C52.3641 18.7656 52.3125 18.6316 52.3125 18.4688C52.3125 18.3286 52.3504 18.2079 52.4261 18.1065C52.5028 18.0052 52.6103 17.9271 52.7486 17.8722C52.8878 17.8172 53.0507 17.7898 53.2372 17.7898C53.5128 17.7898 53.7296 17.848 53.8878 17.9645C54.0469 18.081 54.1397 18.2396 54.1662 18.4403ZM54.5969 20V17.8182H55.1737V18.2031H55.1992C55.2447 18.0753 55.3204 17.9744 55.4265 17.9006C55.5326 17.8267 55.6594 17.7898 55.8072 17.7898C55.9568 17.7898 56.0842 17.8272 56.1893 17.902C56.2944 17.9759 56.3645 18.0762 56.3995 18.2031H56.4222C56.4667 18.0781 56.5472 17.9782 56.6637 17.9034C56.7811 17.8277 56.9199 17.7898 57.0799 17.7898C57.2835 17.7898 57.4487 17.8546 57.5756 17.9844C57.7035 18.1132 57.7674 18.2959 57.7674 18.5327V20H57.1637V18.652C57.1637 18.5308 57.1315 18.4399 57.0671 18.3793C57.0027 18.3187 56.9222 18.2884 56.8256 18.2884C56.7158 18.2884 56.6301 18.3234 56.5685 18.3935C56.507 18.4626 56.4762 18.554 56.4762 18.6676V20H55.8896V18.6392C55.8896 18.5322 55.8588 18.447 55.7972 18.3835C55.7366 18.3201 55.6566 18.2884 55.5572 18.2884C55.4899 18.2884 55.4293 18.3054 55.3754 18.3395C55.3223 18.3726 55.2802 18.4195 55.2489 18.4801C55.2177 18.5398 55.2021 18.6098 55.2021 18.6903V20H54.5969ZM59.2312 20.0426C59.0105 20.0426 58.8197 19.9957 58.6587 19.902C58.4987 19.8073 58.3751 19.6757 58.288 19.5071C58.2009 19.3376 58.1573 19.1411 58.1573 18.9176C58.1573 18.6922 58.2009 18.4953 58.288 18.3267C58.3751 18.1572 58.4987 18.0256 58.6587 17.9318C58.8197 17.8371 59.0105 17.7898 59.2312 17.7898C59.4518 17.7898 59.6422 17.8371 59.8022 17.9318C59.9632 18.0256 60.0872 18.1572 60.1744 18.3267C60.2615 18.4953 60.305 18.6922 60.305 18.9176C60.305 19.1411 60.2615 19.3376 60.1744 19.5071C60.0872 19.6757 59.9632 19.8073 59.8022 19.902C59.6422 19.9957 59.4518 20.0426 59.2312 20.0426ZM59.234 19.5739C59.3344 19.5739 59.4182 19.5455 59.4854 19.4886C59.5527 19.4309 59.6033 19.3523 59.6374 19.2528C59.6725 19.1534 59.69 19.0402 59.69 18.9134C59.69 18.7865 59.6725 18.6733 59.6374 18.5739C59.6033 18.4744 59.5527 18.3958 59.4854 18.3381C59.4182 18.2803 59.3344 18.2514 59.234 18.2514C59.1327 18.2514 59.0475 18.2803 58.9783 18.3381C58.9102 18.3958 58.8585 18.4744 58.8235 18.5739C58.7894 18.6733 58.7724 18.7865 58.7724 18.9134C58.7724 19.0402 58.7894 19.1534 58.8235 19.2528C58.8585 19.3523 58.9102 19.4309 58.9783 19.4886C59.0475 19.5455 59.1327 19.5739 59.234 19.5739ZM64.2024 18.1094H63.5803C63.5689 18.0289 63.5457 17.9574 63.5107 17.8949C63.4756 17.8314 63.4306 17.7775 63.3757 17.733C63.3208 17.6884 63.2573 17.6544 63.1854 17.6307C63.1143 17.607 63.0372 17.5952 62.9538 17.5952C62.8033 17.5952 62.6721 17.6326 62.5604 17.7074C62.4486 17.7812 62.362 17.8892 62.3004 18.0312C62.2389 18.1723 62.2081 18.3437 62.2081 18.5455C62.2081 18.7528 62.2389 18.9271 62.3004 19.0682C62.3629 19.2093 62.45 19.3158 62.5618 19.3878C62.6735 19.4598 62.8028 19.4957 62.9496 19.4957C63.032 19.4957 63.1082 19.4848 63.1783 19.4631C63.2493 19.4413 63.3123 19.4096 63.3672 19.3679C63.4221 19.3253 63.4676 19.2737 63.5036 19.2131C63.5405 19.1525 63.5661 19.0833 63.5803 19.0057L64.2024 19.0085C64.1863 19.142 64.1461 19.2708 64.0817 19.3949C64.0182 19.518 63.9325 19.6283 63.8246 19.7259C63.7176 19.8224 63.5897 19.8991 63.4411 19.956C63.2933 20.0118 63.1262 20.0398 62.9396 20.0398C62.6802 20.0398 62.4482 19.9811 62.2436 19.8636C62.04 19.7462 61.879 19.5762 61.7607 19.3537C61.6432 19.1312 61.5845 18.8617 61.5845 18.5455C61.5845 18.2282 61.6442 17.9583 61.7635 17.7358C61.8828 17.5133 62.0447 17.3437 62.2493 17.2273C62.4538 17.1098 62.6839 17.0511 62.9396 17.0511C63.1082 17.0511 63.2644 17.0748 63.4084 17.1222C63.5533 17.1695 63.6816 17.2386 63.7933 17.3295C63.9051 17.4195 63.996 17.5298 64.0661 17.6605C64.1371 17.7912 64.1825 17.9408 64.2024 18.1094ZM65.2372 18.7386V20H64.6321V17.0909H65.2202V18.2031H65.2457C65.295 18.0743 65.3745 17.9735 65.4844 17.9006C65.5942 17.8267 65.732 17.7898 65.8977 17.7898C66.0492 17.7898 66.1813 17.8229 66.294 17.8892C66.4077 17.9545 66.4957 18.0488 66.5582 18.1719C66.6217 18.294 66.6529 18.4403 66.652 18.6108V20H66.0469V18.7188C66.0478 18.5843 66.0137 18.4796 65.9446 18.4048C65.8764 18.33 65.7808 18.2926 65.6577 18.2926C65.5753 18.2926 65.5024 18.3101 65.4389 18.3452C65.3764 18.3802 65.3272 18.4313 65.2912 18.4986C65.2562 18.5649 65.2382 18.6449 65.2372 18.7386ZM67.7504 20.0412C67.6112 20.0412 67.4871 20.017 67.3782 19.9688C67.2693 19.9195 67.1831 19.8471 67.1197 19.7514C67.0572 19.6548 67.0259 19.5346 67.0259 19.3906C67.0259 19.2694 67.0482 19.1676 67.0927 19.0852C67.1372 19.0028 67.1978 18.9366 67.2745 18.8864C67.3512 18.8362 67.4383 18.7983 67.5359 18.7727C67.6344 18.7472 67.7376 18.7292 67.8455 18.7188C67.9724 18.7055 68.0747 18.6932 68.1523 18.6818C68.23 18.6695 68.2863 18.6515 68.3214 18.6278C68.3564 18.6042 68.3739 18.5691 68.3739 18.5227V18.5142C68.3739 18.4242 68.3455 18.3546 68.2887 18.3054C68.2328 18.2562 68.1533 18.2315 68.0501 18.2315C67.9412 18.2315 67.8545 18.2557 67.7901 18.304C67.7257 18.3513 67.6831 18.411 67.6623 18.483L67.1026 18.4375C67.131 18.3049 67.1869 18.1903 67.2702 18.0938C67.3536 17.9962 67.4611 17.9214 67.5927 17.8693C67.7253 17.8163 67.8787 17.7898 68.0529 17.7898C68.1741 17.7898 68.2901 17.804 68.4009 17.8324C68.5127 17.8608 68.6116 17.9048 68.6978 17.9645C68.7849 18.0241 68.8536 18.1009 68.9038 18.1946C68.954 18.2874 68.979 18.3987 68.979 18.5284V20H68.4052V19.6974H68.3881C68.3531 19.7656 68.3062 19.8258 68.2475 19.8778C68.1888 19.929 68.1183 19.9692 68.0359 19.9986C67.9535 20.027 67.8583 20.0412 67.7504 20.0412ZM67.9237 19.6236C68.0127 19.6236 68.0913 19.6061 68.1594 19.571C68.2276 19.535 68.2811 19.4867 68.32 19.4261C68.3588 19.3655 68.3782 19.2969 68.3782 19.2202V18.9886C68.3593 19.0009 68.3332 19.0123 68.3001 19.0227C68.2679 19.0322 68.2314 19.0412 68.1907 19.0497C68.15 19.0573 68.1093 19.0644 68.0685 19.071C68.0278 19.0767 67.9909 19.0819 67.9577 19.0866C67.8867 19.0971 67.8247 19.1136 67.7717 19.1364C67.7186 19.1591 67.6774 19.1899 67.6481 19.2287C67.6187 19.2666 67.604 19.3139 67.604 19.3707C67.604 19.4531 67.6339 19.5161 67.6935 19.5597C67.7541 19.6023 67.8308 19.6236 67.9237 19.6236ZM70.0536 18.7386V20H69.4485V17.8182H70.0252V18.2031H70.0508C70.0991 18.0762 70.18 17.9759 70.2937 17.902C70.4073 17.8272 70.5451 17.7898 70.707 17.7898C70.8585 17.7898 70.9906 17.8229 71.1033 17.8892C71.216 17.9555 71.3036 18.0502 71.3661 18.1733C71.4286 18.2955 71.4599 18.4413 71.4599 18.6108V20H70.8548V18.7188C70.8557 18.5852 70.8216 18.4811 70.7525 18.4062C70.6834 18.3305 70.5882 18.2926 70.467 18.2926C70.3855 18.2926 70.3136 18.3101 70.2511 18.3452C70.1895 18.3802 70.1412 18.4313 70.1062 18.4986C70.0721 18.5649 70.0546 18.6449 70.0536 18.7386ZM73.2038 16.9545L72.2663 20.4375H71.745L72.6825 16.9545H73.2038ZM73.4755 20V19.6349L74.9272 17.598H73.4727V17.0909H75.6999V17.456L74.2468 19.4929H75.7028V20H73.4755ZM77.1577 20.0426C76.9332 20.0426 76.7401 19.9972 76.5781 19.9062C76.4171 19.8144 76.2931 19.6847 76.206 19.517C76.1188 19.3485 76.0753 19.1491 76.0753 18.919C76.0753 18.6946 76.1188 18.4976 76.206 18.3281C76.2931 18.1586 76.4157 18.0265 76.5739 17.9318C76.733 17.8371 76.9195 17.7898 77.1335 17.7898C77.2775 17.7898 77.4115 17.813 77.5355 17.8594C77.6605 17.9048 77.7694 17.9735 77.8622 18.0653C77.956 18.1572 78.0289 18.2727 78.081 18.4119C78.133 18.5502 78.1591 18.7121 78.1591 18.8977V19.0639H76.3168V18.6889H77.5895C77.5895 18.6018 77.5705 18.5246 77.5327 18.4574C77.4948 18.3902 77.4422 18.3376 77.375 18.2997C77.3087 18.2609 77.2315 18.2415 77.1435 18.2415C77.0516 18.2415 76.9702 18.2628 76.8991 18.3054C76.8291 18.3471 76.7741 18.4034 76.7344 18.4744C76.6946 18.5445 76.6742 18.6226 76.6733 18.7088V19.0653C76.6733 19.1733 76.6932 19.2666 76.733 19.3452C76.7737 19.4238 76.831 19.4844 76.9048 19.527C76.9787 19.5696 77.0663 19.5909 77.1676 19.5909C77.2348 19.5909 77.2964 19.5814 77.3523 19.5625C77.4081 19.5436 77.456 19.5152 77.4957 19.4773C77.5355 19.4394 77.5658 19.393 77.5866 19.3381L78.1463 19.375C78.1179 19.5095 78.0597 19.6269 77.9716 19.7273C77.8845 19.8267 77.7718 19.9044 77.6335 19.9602C77.4962 20.0152 77.3376 20.0426 77.1577 20.0426ZM79.1591 18.7386V20H78.554V17.8182H79.1307V18.2031H79.1562C79.2045 18.0762 79.2855 17.9759 79.3991 17.902C79.5128 17.8272 79.6506 17.7898 79.8125 17.7898C79.964 17.7898 80.0961 17.8229 80.2088 17.8892C80.3215 17.9555 80.4091 18.0502 80.4716 18.1733C80.5341 18.2955 80.5653 18.4413 80.5653 18.6108V20H79.9602V18.7188C79.9612 18.5852 79.9271 18.4811 79.858 18.4062C79.7888 18.3305 79.6937 18.2926 79.5724 18.2926C79.491 18.2926 79.419 18.3101 79.3565 18.3452C79.295 18.3802 79.2467 18.4313 79.2116 18.4986C79.1776 18.5649 79.16 18.6449 79.1591 18.7386ZM81.9794 20V17.0909H82.5945V19.4929H83.8416V20H81.9794ZM84.8597 20.0412C84.7205 20.0412 84.5965 20.017 84.4876 19.9688C84.3787 19.9195 84.2925 19.8471 84.229 19.7514C84.1665 19.6548 84.1353 19.5346 84.1353 19.3906C84.1353 19.2694 84.1576 19.1676 84.2021 19.0852C84.2466 19.0028 84.3072 18.9366 84.3839 18.8864C84.4606 18.8362 84.5477 18.7983 84.6452 18.7727C84.7437 18.7472 84.8469 18.7292 84.9549 18.7188C85.0818 18.7055 85.1841 18.6932 85.2617 18.6818C85.3394 18.6695 85.3957 18.6515 85.4308 18.6278C85.4658 18.6042 85.4833 18.5691 85.4833 18.5227V18.5142C85.4833 18.4242 85.4549 18.3546 85.3981 18.3054C85.3422 18.2562 85.2627 18.2315 85.1594 18.2315C85.0505 18.2315 84.9639 18.2557 84.8995 18.304C84.8351 18.3513 84.7925 18.411 84.7717 18.483L84.212 18.4375C84.2404 18.3049 84.2963 18.1903 84.3796 18.0938C84.4629 17.9962 84.5704 17.9214 84.7021 17.8693C84.8346 17.8163 84.988 17.7898 85.1623 17.7898C85.2835 17.7898 85.3995 17.804 85.5103 17.8324C85.622 17.8608 85.721 17.9048 85.8072 17.9645C85.8943 18.0241 85.9629 18.1009 86.0131 18.1946C86.0633 18.2874 86.0884 18.3987 86.0884 18.5284V20H85.5146V19.6974H85.4975C85.4625 19.7656 85.4156 19.8258 85.3569 19.8778C85.2982 19.929 85.2276 19.9692 85.1452 19.9986C85.0629 20.027 84.9677 20.0412 84.8597 20.0412ZM85.033 19.6236C85.122 19.6236 85.2006 19.6061 85.2688 19.571C85.337 19.535 85.3905 19.4867 85.4293 19.4261C85.4682 19.3655 85.4876 19.2969 85.4876 19.2202V18.9886C85.4686 19.0009 85.4426 19.0123 85.4094 19.0227C85.3772 19.0322 85.3408 19.0412 85.3001 19.0497C85.2594 19.0573 85.2186 19.0644 85.1779 19.071C85.1372 19.0767 85.1003 19.0819 85.0671 19.0866C84.9961 19.0971 84.9341 19.1136 84.881 19.1364C84.828 19.1591 84.7868 19.1899 84.7575 19.2287C84.7281 19.2666 84.7134 19.3139 84.7134 19.3707C84.7134 19.4531 84.7433 19.5161 84.8029 19.5597C84.8635 19.6023 84.9402 19.6236 85.033 19.6236ZM87.7184 17.8182V18.2727H86.4045V17.8182H87.7184ZM86.7028 17.2955H87.3079V19.3295C87.3079 19.3854 87.3164 19.429 87.3335 19.4602C87.3505 19.4905 87.3742 19.5118 87.4045 19.5241C87.4357 19.5365 87.4717 19.5426 87.5124 19.5426C87.5408 19.5426 87.5692 19.5402 87.5977 19.5355C87.6261 19.5298 87.6478 19.5256 87.663 19.5227L87.7582 19.973C87.7279 19.9825 87.6853 19.9934 87.6303 20.0057C87.5754 20.0189 87.5086 20.027 87.43 20.0298C87.2842 20.0355 87.1564 20.0161 87.0465 19.9716C86.9376 19.9271 86.8529 19.858 86.7923 19.7642C86.7317 19.6705 86.7018 19.5521 86.7028 19.4091V17.2955ZM88.1126 20V17.8182H88.7177V20H88.1126ZM88.4165 17.5369C88.3266 17.5369 88.2494 17.5071 88.185 17.4474C88.1216 17.3868 88.0898 17.3144 88.0898 17.2301C88.0898 17.1468 88.1216 17.0753 88.185 17.0156C88.2494 16.955 88.3266 16.9247 88.4165 16.9247C88.5065 16.9247 88.5832 16.955 88.6467 17.0156C88.7111 17.0753 88.7433 17.1468 88.7433 17.2301C88.7433 17.3144 88.7111 17.3868 88.6467 17.4474C88.5832 17.5071 88.5065 17.5369 88.4165 17.5369ZM89.8075 18.7386V20H89.2024V17.8182H89.7791V18.2031H89.8047C89.853 18.0762 89.9339 17.9759 90.0476 17.902C90.1612 17.8272 90.299 17.7898 90.4609 17.7898C90.6125 17.7898 90.7446 17.8229 90.8572 17.8892C90.9699 17.9555 91.0575 18.0502 91.12 18.1733C91.1825 18.2955 91.2138 18.4413 91.2138 18.6108V20H90.6087V18.7188C90.6096 18.5852 90.5755 18.4811 90.5064 18.4062C90.4373 18.3305 90.3421 18.2926 90.2209 18.2926C90.1394 18.2926 90.0675 18.3101 90.005 18.3452C89.9434 18.3802 89.8951 18.4313 89.8601 18.4986C89.826 18.5649 89.8085 18.6449 89.8075 18.7386ZM92.6765 20.0426C92.4558 20.0426 92.265 19.9957 92.104 19.902C91.944 19.8073 91.8204 19.6757 91.7333 19.5071C91.6462 19.3376 91.6026 19.1411 91.6026 18.9176C91.6026 18.6922 91.6462 18.4953 91.7333 18.3267C91.8204 18.1572 91.944 18.0256 92.104 17.9318C92.265 17.8371 92.4558 17.7898 92.6765 17.7898C92.8971 17.7898 93.0875 17.8371 93.2475 17.9318C93.4085 18.0256 93.5326 18.1572 93.6197 18.3267C93.7068 18.4953 93.7504 18.6922 93.7504 18.9176C93.7504 19.1411 93.7068 19.3376 93.6197 19.5071C93.5326 19.6757 93.4085 19.8073 93.2475 19.902C93.0875 19.9957 92.8971 20.0426 92.6765 20.0426ZM92.6793 19.5739C92.7797 19.5739 92.8635 19.5455 92.9308 19.4886C92.998 19.4309 93.0487 19.3523 93.0827 19.2528C93.1178 19.1534 93.1353 19.0402 93.1353 18.9134C93.1353 18.7865 93.1178 18.6733 93.0827 18.5739C93.0487 18.4744 92.998 18.3958 92.9308 18.3381C92.8635 18.2803 92.7797 18.2514 92.6793 18.2514C92.578 18.2514 92.4928 18.2803 92.4237 18.3381C92.3555 18.3958 92.3039 18.4744 92.2688 18.5739C92.2347 18.6733 92.2177 18.7865 92.2177 18.9134C92.2177 19.0402 92.2347 19.1534 92.2688 19.2528C92.3039 19.3523 92.3555 19.4309 92.4237 19.4886C92.4928 19.5455 92.578 19.5739 92.6793 19.5739ZM94.766 20.0412C94.6268 20.0412 94.5027 20.017 94.3938 19.9688C94.2849 19.9195 94.1987 19.8471 94.1353 19.7514C94.0728 19.6548 94.0415 19.5346 94.0415 19.3906C94.0415 19.2694 94.0638 19.1676 94.1083 19.0852C94.1528 19.0028 94.2134 18.9366 94.2901 18.8864C94.3668 18.8362 94.454 18.7983 94.5515 18.7727C94.65 18.7472 94.7532 18.7292 94.8612 18.7188C94.988 18.7055 95.0903 18.6932 95.168 18.6818C95.2456 18.6695 95.302 18.6515 95.337 18.6278C95.372 18.6042 95.3896 18.5691 95.3896 18.5227V18.5142C95.3896 18.4242 95.3612 18.3546 95.3043 18.3054C95.2485 18.2562 95.1689 18.2315 95.0657 18.2315C94.9568 18.2315 94.8701 18.2557 94.8058 18.304C94.7414 18.3513 94.6987 18.411 94.6779 18.483L94.1183 18.4375C94.1467 18.3049 94.2025 18.1903 94.2859 18.0938C94.3692 17.9962 94.4767 17.9214 94.6083 17.8693C94.7409 17.8163 94.8943 17.7898 95.0685 17.7898C95.1897 17.7898 95.3058 17.804 95.4165 17.8324C95.5283 17.8608 95.6272 17.9048 95.7134 17.9645C95.8005 18.0241 95.8692 18.1009 95.9194 18.1946C95.9696 18.2874 95.9947 18.3987 95.9947 18.5284V20H95.4208V19.6974H95.4038C95.3687 19.7656 95.3219 19.8258 95.2631 19.8778C95.2044 19.929 95.1339 19.9692 95.0515 19.9986C94.9691 20.027 94.8739 20.0412 94.766 20.0412ZM94.9393 19.6236C95.0283 19.6236 95.1069 19.6061 95.1751 19.571C95.2433 19.535 95.2968 19.4867 95.3356 19.4261C95.3744 19.3655 95.3938 19.2969 95.3938 19.2202V18.9886C95.3749 19.0009 95.3488 19.0123 95.3157 19.0227C95.2835 19.0322 95.247 19.0412 95.2063 19.0497C95.1656 19.0573 95.1249 19.0644 95.0842 19.071C95.0434 19.0767 95.0065 19.0819 94.9734 19.0866C94.9023 19.0971 94.8403 19.1136 94.7873 19.1364C94.7343 19.1591 94.6931 19.1899 94.6637 19.2287C94.6344 19.2666 94.6197 19.3139 94.6197 19.3707C94.6197 19.4531 94.6495 19.5161 94.7092 19.5597C94.7698 19.6023 94.8465 19.6236 94.9393 19.6236ZM96.4641 20V17.8182H97.0408V18.2031H97.0664C97.1119 18.0753 97.1876 17.9744 97.2937 17.9006C97.3997 17.8267 97.5266 17.7898 97.6744 17.7898C97.824 17.7898 97.9513 17.8272 98.0565 17.902C98.1616 17.9759 98.2317 18.0762 98.2667 18.2031H98.2894C98.3339 18.0781 98.4144 17.9782 98.5309 17.9034C98.6483 17.8277 98.7871 17.7898 98.9471 17.7898C99.1507 17.7898 99.3159 17.8546 99.4428 17.9844C99.5707 18.1132 99.6346 18.2959 99.6346 18.5327V20H99.0309V18.652C99.0309 18.5308 98.9987 18.4399 98.9343 18.3793C98.8699 18.3187 98.7894 18.2884 98.6928 18.2884C98.583 18.2884 98.4973 18.3234 98.4357 18.3935C98.3742 18.4626 98.3434 18.554 98.3434 18.6676V20H97.7567V18.6392C97.7567 18.5322 97.726 18.447 97.6644 18.3835C97.6038 18.3201 97.5238 18.2884 97.4244 18.2884C97.3571 18.2884 97.2965 18.3054 97.2425 18.3395C97.1895 18.3726 97.1474 18.4195 97.1161 18.4801C97.0849 18.5398 97.0692 18.6098 97.0692 18.6903V20H96.4641ZM101.107 20.0426C100.882 20.0426 100.689 19.9972 100.527 19.9062C100.366 19.8144 100.242 19.6847 100.155 19.517C100.068 19.3485 100.025 19.1491 100.025 18.919C100.025 18.6946 100.068 18.4976 100.155 18.3281C100.242 18.1586 100.365 18.0265 100.523 17.9318C100.682 17.8371 100.869 17.7898 101.083 17.7898C101.227 17.7898 101.361 17.813 101.485 17.8594C101.61 17.9048 101.719 17.9735 101.811 18.0653C101.905 18.1572 101.978 18.2727 102.03 18.4119C102.082 18.5502 102.108 18.7121 102.108 18.8977V19.0639H100.266V18.6889H101.539C101.539 18.6018 101.52 18.5246 101.482 18.4574C101.444 18.3902 101.391 18.3376 101.324 18.2997C101.258 18.2609 101.181 18.2415 101.093 18.2415C101.001 18.2415 100.919 18.2628 100.848 18.3054C100.778 18.3471 100.723 18.4034 100.684 18.4744C100.644 18.5445 100.623 18.6226 100.623 18.7088V19.0653C100.623 19.1733 100.642 19.2666 100.682 19.3452C100.723 19.4238 100.78 19.4844 100.854 19.527C100.928 19.5696 101.016 19.5909 101.117 19.5909C101.184 19.5909 101.246 19.5814 101.301 19.5625C101.357 19.5436 101.405 19.5152 101.445 19.4773C101.485 19.4394 101.515 19.393 101.536 19.3381L102.096 19.375C102.067 19.5095 102.009 19.6269 101.921 19.7273C101.834 19.8267 101.721 19.9044 101.583 19.9602C101.445 20.0152 101.287 20.0426 101.107 20.0426ZM102.503 20V17.8182H103.09V18.1989H103.113C103.152 18.0634 103.219 17.9612 103.313 17.892C103.407 17.822 103.515 17.7869 103.637 17.7869C103.667 17.7869 103.7 17.7888 103.735 17.7926C103.77 17.7964 103.801 17.8016 103.827 17.8082V18.3452C103.799 18.3366 103.759 18.3291 103.709 18.3224C103.659 18.3158 103.613 18.3125 103.571 18.3125C103.482 18.3125 103.403 18.3319 103.333 18.3707C103.264 18.4086 103.209 18.4616 103.168 18.5298C103.128 18.598 103.108 18.6766 103.108 18.7656V20H102.503ZM104.14 20V17.8182H104.745V20H104.14ZM104.444 17.5369C104.354 17.5369 104.277 17.5071 104.212 17.4474C104.149 17.3868 104.117 17.3144 104.117 17.2301C104.117 17.1468 104.149 17.0753 104.212 17.0156C104.277 16.955 104.354 16.9247 104.444 16.9247C104.534 16.9247 104.611 16.955 104.674 17.0156C104.738 17.0753 104.771 17.1468 104.771 17.2301C104.771 17.3144 104.738 17.3868 104.674 17.4474C104.611 17.5071 104.534 17.5369 104.444 17.5369ZM106.216 20.0426C105.992 20.0426 105.8 19.9953 105.639 19.9006C105.479 19.8049 105.356 19.6723 105.27 19.5028C105.184 19.3333 105.142 19.1383 105.142 18.9176C105.142 18.6941 105.185 18.4981 105.271 18.3295C105.358 18.16 105.482 18.0279 105.642 17.9332C105.802 17.8376 105.992 17.7898 106.213 17.7898C106.403 17.7898 106.57 17.8243 106.713 17.8935C106.856 17.9626 106.969 18.0597 107.052 18.1847C107.136 18.3097 107.181 18.4564 107.19 18.625H106.619C106.603 18.5161 106.56 18.4285 106.491 18.3622C106.423 18.295 106.333 18.2614 106.223 18.2614C106.129 18.2614 106.047 18.2869 105.977 18.3381C105.908 18.3883 105.854 18.4616 105.815 18.5582C105.776 18.6548 105.757 18.7718 105.757 18.9091C105.757 19.0483 105.776 19.1667 105.814 19.2642C105.852 19.3617 105.907 19.4361 105.977 19.4872C106.047 19.5384 106.129 19.5639 106.223 19.5639C106.292 19.5639 106.354 19.5497 106.409 19.5213C106.465 19.4929 106.511 19.4517 106.547 19.3977C106.583 19.3428 106.608 19.277 106.619 19.2003H107.19C107.181 19.367 107.135 19.5137 107.054 19.6406C106.973 19.7666 106.862 19.8651 106.72 19.9361C106.578 20.0071 106.41 20.0426 106.216 20.0426ZM108.2 20.0412C108.06 20.0412 107.936 20.017 107.827 19.9688C107.719 19.9195 107.632 19.8471 107.569 19.7514C107.506 19.6548 107.475 19.5346 107.475 19.3906C107.475 19.2694 107.497 19.1676 107.542 19.0852C107.586 19.0028 107.647 18.9366 107.724 18.8864C107.8 18.8362 107.888 18.7983 107.985 18.7727C108.084 18.7472 108.187 18.7292 108.295 18.7188C108.422 18.7055 108.524 18.6932 108.602 18.6818C108.679 18.6695 108.736 18.6515 108.771 18.6278C108.806 18.6042 108.823 18.5691 108.823 18.5227V18.5142C108.823 18.4242 108.795 18.3546 108.738 18.3054C108.682 18.2562 108.603 18.2315 108.499 18.2315C108.39 18.2315 108.304 18.2557 108.239 18.304C108.175 18.3513 108.132 18.411 108.112 18.483L107.552 18.4375C107.58 18.3049 107.636 18.1903 107.719 18.0938C107.803 17.9962 107.91 17.9214 108.042 17.8693C108.174 17.8163 108.328 17.7898 108.502 17.7898C108.623 17.7898 108.739 17.804 108.85 17.8324C108.962 17.8608 109.061 17.9048 109.147 17.9645C109.234 18.0241 109.303 18.1009 109.353 18.1946C109.403 18.2874 109.428 18.3987 109.428 18.5284V20H108.854V19.6974H108.837C108.802 19.7656 108.755 19.8258 108.697 19.8778C108.638 19.929 108.567 19.9692 108.485 19.9986C108.403 20.027 108.308 20.0412 108.2 20.0412ZM108.373 19.6236C108.462 19.6236 108.54 19.6061 108.609 19.571C108.677 19.535 108.73 19.4867 108.769 19.4261C108.808 19.3655 108.827 19.2969 108.827 19.2202V18.9886C108.808 19.0009 108.782 19.0123 108.749 19.0227C108.717 19.0322 108.681 19.0412 108.64 19.0497C108.599 19.0573 108.558 19.0644 108.518 19.071C108.477 19.0767 108.44 19.0819 108.407 19.0866C108.336 19.0971 108.274 19.1136 108.221 19.1364C108.168 19.1591 108.127 19.1899 108.097 19.2287C108.068 19.2666 108.053 19.3139 108.053 19.3707C108.053 19.4531 108.083 19.5161 108.143 19.5597C108.203 19.6023 108.28 19.6236 108.373 19.6236Z" fill="black"/>
</svg>
