<svg width="180" height="37" viewBox="0 0 180 37" fill="none" xmlns="http://www.w3.org/2000/svg">
<path d="M19.043 0.171969C15.429 0.976348 11.8428 3.00117 9.5632 5.58073C8.062 7.30044 6.2828 10.6844 5.8102 12.8201L5.4766 14.3457L2.7244 15.788C1.2232 16.5647 0 17.3136 0 17.4523C0 17.5632 0.6672 17.6742 1.4734 17.7019C2.2518 17.7019 3.475 17.8128 4.1422 17.8961L5.3654 18.0902L5.7268 19.8931C6.2272 22.334 8.062 25.9121 9.7578 27.7705C11.398 29.5734 13.9834 31.3209 16.124 32.1253C17.6252 32.68 17.6808 32.7077 18.348 34.5107C19.043 36.369 19.7936 37.2012 19.5434 35.8698C19.46 35.4815 19.4878 34.7326 19.5712 34.2055L19.738 33.2902L22.6014 33.1515C30.1908 32.7909 36.3068 27.9092 38.2528 20.6698C38.8922 18.2289 38.7532 14.1793 37.947 11.6552C37.5578 10.4625 37.0018 9.07562 36.696 8.54861C36.3624 8.04934 36.1678 7.57781 36.2234 7.4946C36.3068 7.43912 37.4466 7.30044 38.781 7.21722C41.7278 7.02306 41.3942 6.71795 37.6968 6.24642C35.028 5.91357 35.028 5.91357 33.4712 4.47124C31.8032 2.89022 29.5514 1.6143 27.0494 0.726713C25.2424 0.0887572 20.85 -0.216352 19.043 0.171969ZM25.8262 0.893137C26.827 1.14277 28.4116 1.69752 29.3568 2.16905C31.2472 3.11211 34.3608 5.69168 33.9994 6.05226C33.5546 6.49606 31.8032 6.35737 30.58 5.80263C27.2996 4.24934 23.1574 5.88584 20.5442 9.74131L19.321 11.5165H16.958C14.2892 11.5442 12.093 11.9603 8.618 13.2085C7.3392 13.6523 6.2272 13.9851 6.1716 13.9296C6.116 13.8742 6.2828 13.1253 6.533 12.2377C7.9508 7.41138 11.5648 3.38949 16.1796 1.55883C19.0708 0.421604 22.7126 0.171969 25.8262 0.893137ZM30.1074 6.05226C30.6634 6.19095 31.136 6.41284 31.1082 6.52379C31.1082 6.63474 30.3298 7.21722 29.3846 7.82744C27.8 8.85372 26.7436 10.1019 25.159 12.7924C24.9088 13.2362 24.7698 13.2085 23.2686 12.5705C22.379 12.1822 21.4616 11.8493 21.1836 11.8493C20.9334 11.8493 20.5442 11.7384 20.3218 11.5997C19.4322 11.0172 23.213 6.96759 25.3814 6.19095C26.7714 5.71941 28.6618 5.6362 30.1074 6.05226ZM35.5284 7.13401C33.2488 7.74423 31.5808 8.57635 30.3298 9.71357C29.2178 10.7676 27.8834 13.4304 27.6332 15.0946C27.4664 16.2873 26.966 17.0362 26.966 16.1209C26.966 15.8712 26.6602 15.2333 26.271 14.734C25.4092 13.5968 25.4092 13.4026 26.3822 11.6829C28.2726 8.40993 31.4974 6.60701 35.445 6.60701L37.391 6.63474L35.5284 7.13401ZM36.6404 9.63036C39.7818 15.899 38.3084 23.4712 32.9708 28.3807C29.885 31.2654 26.2988 32.6523 22.0454 32.6523H19.738L19.9048 31.9034C20.294 30.3223 21.4616 28.2698 23.5188 25.5793C25.9374 22.4172 27.1328 20.1428 27.5498 17.7851C28.4116 13.1807 29.7182 10.4902 31.6364 9.29752C32.9708 8.43766 34.7778 7.68876 35.306 7.77197C35.5284 7.79971 36.14 8.63182 36.6404 9.63036ZM18.7372 12.0712C18.8206 12.2099 18.5148 13.3472 18.07 14.6508C17.6252 15.9545 17.097 17.9793 16.9302 19.172L16.5966 21.3355L15.707 21.1968C15.2066 21.1136 13.4274 20.4201 11.7594 19.6712C8.7292 18.2844 6.394 17.6187 3.058 17.2304L1.251 17.0362L4.309 15.5661C7.7562 13.9296 11.8706 12.515 14.3448 12.1545C16.541 11.8216 18.5704 11.7939 18.7372 12.0712ZM23.2964 13.0975C24.0748 13.4581 24.742 13.8187 24.742 13.9019C24.742 13.9851 24.3528 15.1223 23.8802 16.4537C22.8238 19.3661 21.6006 20.753 19.6546 21.2245C17.4862 21.7793 17.236 21.6961 17.236 20.5034C17.236 19.2274 17.8198 16.8698 18.7928 14.0961L19.5434 12.0712L20.6832 12.2377C21.3226 12.3486 22.4902 12.7369 23.2964 13.0975ZM25.993 15.1223C26.41 15.6771 26.549 16.315 26.549 17.6742C26.549 19.9763 25.576 22.1121 22.9628 25.5238C20.711 28.4639 19.4878 30.9603 19.2654 33.0406C19.182 33.9004 19.0152 34.5107 18.904 34.4552C18.7928 34.372 18.4314 33.3457 18.1256 32.1807C16.958 27.8815 16.5966 21.8625 17.4862 22.0566C17.6808 22.1121 18.5426 22.0012 19.4044 21.807C21.684 21.3355 23.2964 19.6435 24.2972 16.6201C24.7142 15.372 25.159 14.3457 25.2424 14.3457C25.3536 14.3457 25.6872 14.7063 25.993 15.1223ZM8.0898 18.6727C8.9238 18.9223 10.3972 19.5326 11.398 20.0318C12.3988 20.5311 13.9 21.1413 14.7618 21.4187L16.3186 21.918L16.5132 24.9968C16.6244 26.6888 16.8746 28.9355 17.097 29.9895C17.3194 31.0435 17.4584 31.9588 17.4028 32.0143C17.3472 32.0698 16.5132 31.7647 15.5402 31.3209C12.0652 29.7399 9.1184 26.9384 7.6172 23.7763C6.4496 21.3632 5.7268 18.2289 6.3384 18.2289C6.4774 18.2289 7.2558 18.4231 8.0898 18.6727Z" fill="black"/>
<path d="M80.611 11.4549C80.611 12.0101 80.5057 12.4824 80.2953 12.8718C80.0865 13.2613 79.8014 13.5587 79.4402 13.7642C79.0806 13.9681 78.6762 14.07 78.2271 14.07C77.7747 14.07 77.3687 13.9672 77.0091 13.7617C76.6494 13.5562 76.3652 13.2588 76.1564 12.8693C75.9476 12.4799 75.8432 12.0084 75.8432 11.4549C75.8432 10.8998 75.9476 10.4274 76.1564 10.038C76.3652 9.64857 76.6494 9.35193 77.0091 9.14809C77.3687 8.9426 77.7747 8.83985 78.2271 8.83985C78.6762 8.83985 79.0806 8.9426 79.4402 9.14809C79.8014 9.35193 80.0865 9.64857 80.2953 10.038C80.5057 10.4274 80.611 10.8998 80.611 11.4549ZM79.5197 11.4549C79.5197 11.0953 79.4659 10.792 79.3581 10.5451C79.2521 10.2982 79.1021 10.1109 78.9082 9.98332C78.7143 9.85572 78.4873 9.79191 78.2271 9.79191C77.9669 9.79191 77.7399 9.85572 77.546 9.98332C77.3521 10.1109 77.2013 10.2982 77.0936 10.5451C76.9875 10.792 76.9345 11.0953 76.9345 11.4549C76.9345 11.8145 76.9875 12.1178 77.0936 12.3647C77.2013 12.6116 77.3521 12.7989 77.546 12.9265C77.7399 13.0541 77.9669 13.1179 78.2271 13.1179C78.4873 13.1179 78.7143 13.0541 78.9082 12.9265C79.1021 12.7989 79.2521 12.6116 79.3581 12.3647C79.4659 12.1178 79.5197 11.8145 79.5197 11.4549ZM81.3884 14.0004V10.1822H82.415V10.8484H82.4548C82.5244 10.6114 82.6412 10.4324 82.8053 10.3114C82.9694 10.1888 83.1583 10.1275 83.3721 10.1275C83.4251 10.1275 83.4823 10.1308 83.5436 10.1374C83.6049 10.1441 83.6588 10.1532 83.7052 10.1648V11.1044C83.6555 11.0895 83.5867 11.0762 83.4988 11.0646C83.411 11.053 83.3306 11.0472 83.2577 11.0472C83.1019 11.0472 82.9627 11.0812 82.8401 11.1492C82.7191 11.2154 82.623 11.3082 82.5518 11.4276C82.4822 11.5469 82.4474 11.6844 82.4474 11.8402V14.0004H81.3884ZM85.4819 14.0625C85.1919 14.0625 84.9292 13.9879 84.6939 13.8388C84.4602 13.688 84.2746 13.4667 84.1371 13.1751C84.0012 12.8818 83.9332 12.5221 83.9332 12.0962C83.9332 11.6587 84.0037 11.295 84.1445 11.005C84.2854 10.7133 84.4727 10.4954 84.7063 10.3512C84.9416 10.2054 85.1993 10.1325 85.4794 10.1325C85.6932 10.1325 85.8713 10.1689 86.0138 10.2418C86.158 10.3131 86.274 10.4026 86.3619 10.5103C86.4513 10.6164 86.5193 10.7208 86.5657 10.8235H86.598V8.90946H87.6545V14.0004H86.6104V13.3889H86.5657C86.516 13.4949 86.4455 13.6002 86.3544 13.7046C86.2649 13.8073 86.1481 13.8926 86.0039 13.9606C85.8614 14.0285 85.6874 14.0625 85.4819 14.0625ZM85.8175 13.2198C85.9882 13.2198 86.1323 13.1734 86.25 13.0806C86.3693 12.9862 86.4605 12.8544 86.5234 12.6854C86.5881 12.5163 86.6204 12.3183 86.6204 12.0913C86.6204 11.8642 86.5889 11.667 86.5259 11.4997C86.4629 11.3323 86.3718 11.203 86.2525 11.1119C86.1332 11.0207 85.9882 10.9752 85.8175 10.9752C85.6435 10.9752 85.4968 11.0224 85.3775 11.1168C85.2582 11.2113 85.1679 11.3422 85.1065 11.5096C85.0452 11.677 85.0146 11.8709 85.0146 12.0913C85.0146 12.3133 85.0452 12.5097 85.1065 12.6804C85.1695 12.8494 85.2598 12.982 85.3775 13.0781C85.4968 13.1726 85.6435 13.2198 85.8175 13.2198ZM90.2652 14.0749C89.8724 14.0749 89.5344 13.9954 89.251 13.8363C88.9693 13.6756 88.7522 13.4485 88.5997 13.1552C88.4472 12.8602 88.371 12.5114 88.371 12.1087C88.371 11.7159 88.4472 11.3712 88.5997 11.0746C88.7522 10.7779 88.9668 10.5468 89.2435 10.381C89.5219 10.2153 89.8484 10.1325 90.2229 10.1325C90.4748 10.1325 90.7093 10.1731 90.9264 10.2543C91.1452 10.3338 91.3357 10.454 91.4981 10.6147C91.6622 10.7755 91.7898 10.9776 91.8809 11.2212C91.9721 11.4632 92.0177 11.7466 92.0177 12.0714V12.3622H88.7936V11.706H91.0209C91.0209 11.5535 90.9877 11.4185 90.9214 11.3008C90.8551 11.1831 90.7632 11.0912 90.6455 11.0249C90.5295 10.9569 90.3944 10.923 90.2403 10.923C90.0796 10.923 89.9371 10.9602 89.8128 11.0348C89.6901 11.1077 89.594 11.2063 89.5244 11.3306C89.4548 11.4533 89.4192 11.59 89.4175 11.7408V12.3647C89.4175 12.5536 89.4523 12.7169 89.5219 12.8544C89.5932 12.992 89.6934 13.098 89.8227 13.1726C89.952 13.2472 90.1053 13.2845 90.2826 13.2845C90.4002 13.2845 90.508 13.2679 90.6057 13.2347C90.7035 13.2016 90.7872 13.1519 90.8568 13.0856C90.9264 13.0193 90.9794 12.9381 91.0159 12.842L91.9953 12.9066C91.9456 13.1419 91.8437 13.3474 91.6895 13.5231C91.5371 13.6971 91.3399 13.833 91.0979 13.9308C90.8576 14.0269 90.58 14.0749 90.2652 14.0749ZM93.7677 11.793V14.0004H92.7087V10.1822H93.718V10.8558H93.7627C93.8472 10.6338 93.9889 10.4581 94.1878 10.3288C94.3866 10.1979 94.6278 10.1325 94.9111 10.1325C95.1763 10.1325 95.4075 10.1905 95.6047 10.3065C95.8019 10.4225 95.9552 10.5882 96.0645 10.8036C96.1739 11.0174 96.2286 11.2726 96.2286 11.5693V14.0004H95.1697V11.7582C95.1713 11.5245 95.1117 11.3422 94.9907 11.2113C94.8697 11.0787 94.7032 11.0124 94.491 11.0124C94.3485 11.0124 94.2226 11.0431 94.1132 11.1044C94.0055 11.1657 93.921 11.2552 93.8596 11.3729C93.8 11.4889 93.7693 11.6289 93.7677 11.793ZM98.7032 14.0004V8.90946H99.7796V11.01H101.965V8.90946H103.038V14.0004H101.965V11.8974H99.7796V14.0004H98.7032ZM107.083 11.271L106.113 11.3306C106.097 11.2478 106.061 11.1732 106.006 11.1069C105.952 11.039 105.88 10.9851 105.79 10.9453C105.702 10.9039 105.597 10.8832 105.475 10.8832C105.31 10.8832 105.172 10.918 105.059 10.9876C104.947 11.0555 104.89 11.1467 104.89 11.261C104.89 11.3522 104.927 11.4292 105 11.4922C105.073 11.5552 105.198 11.6057 105.375 11.6438L106.066 11.783C106.437 11.8593 106.714 11.9819 106.896 12.1509C107.079 12.32 107.17 12.542 107.17 12.8171C107.17 13.0674 107.096 13.2869 106.949 13.4759C106.803 13.6648 106.602 13.8123 106.347 13.9183C106.093 14.0227 105.801 14.0749 105.47 14.0749C104.964 14.0749 104.561 13.9697 104.261 13.7592C103.963 13.5471 103.788 13.2588 103.737 12.8942L104.778 12.8395C104.81 12.9936 104.886 13.1113 105.007 13.1925C105.128 13.272 105.283 13.3118 105.472 13.3118C105.658 13.3118 105.807 13.2762 105.919 13.2049C106.034 13.132 106.092 13.0384 106.093 12.924C106.092 12.8279 106.051 12.7492 105.972 12.6879C105.892 12.6249 105.77 12.5768 105.604 12.5437L104.943 12.4119C104.57 12.3374 104.292 12.2081 104.11 12.0242C103.929 11.8402 103.839 11.6057 103.839 11.3207C103.839 11.0754 103.905 10.8641 104.038 10.6868C104.172 10.5095 104.36 10.3728 104.602 10.2766C104.846 10.1805 105.131 10.1325 105.457 10.1325C105.939 10.1325 106.319 10.2344 106.596 10.4382C106.874 10.6421 107.036 10.9196 107.083 11.271ZM110.285 12.3747V10.1822H111.344V14.0004H110.327V13.3068H110.288C110.201 13.5306 110.058 13.7104 109.858 13.8462C109.659 13.9821 109.416 14.0501 109.129 14.0501C108.874 14.0501 108.65 13.9921 108.456 13.8761C108.262 13.7601 108.11 13.5952 108.001 13.3814C107.893 13.1676 107.838 12.9116 107.837 12.6133V10.1822H108.896V12.4244C108.897 12.6498 108.958 12.8279 109.077 12.9588C109.196 13.0897 109.356 13.1552 109.557 13.1552C109.684 13.1552 109.804 13.1262 109.915 13.0682C110.026 13.0085 110.115 12.9207 110.183 12.8047C110.253 12.6887 110.287 12.5453 110.285 12.3747ZM113.533 8.90946H114.738L115.899 11.1019H115.949L117.11 8.90946H118.316L116.459 12.2007V14.0004H115.39V12.2007L113.533 8.90946ZM121.052 12.3747V10.1822H122.111V14.0004H121.094V13.3068H121.054C120.968 13.5306 120.825 13.7104 120.624 13.8462C120.425 13.9821 120.183 14.0501 119.896 14.0501C119.641 14.0501 119.416 13.9921 119.222 13.8761C119.028 13.7601 118.877 13.5952 118.767 13.3814C118.66 13.1676 118.605 12.9116 118.603 12.6133V10.1822H119.662V12.4244C119.664 12.6498 119.724 12.8279 119.844 12.9588C119.963 13.0897 120.123 13.1552 120.323 13.1552C120.451 13.1552 120.57 13.1262 120.681 13.0682C120.792 13.0085 120.882 12.9207 120.95 12.8047C121.019 12.6887 121.053 12.5453 121.052 12.3747ZM124.017 11.793V14.0004H122.958V10.1822H123.967V10.8558H124.012C124.096 10.6338 124.238 10.4581 124.437 10.3288C124.636 10.1979 124.877 10.1325 125.16 10.1325C125.425 10.1325 125.656 10.1905 125.854 10.3065C126.051 10.4225 126.204 10.5882 126.314 10.8036C126.423 11.0174 126.478 11.2726 126.478 11.5693V14.0004H125.419V11.7582C125.42 11.5245 125.361 11.3422 125.24 11.2113C125.119 11.0787 124.952 11.0124 124.74 11.0124C124.598 11.0124 124.472 11.0431 124.362 11.1044C124.254 11.1657 124.17 11.2552 124.109 11.3729C124.049 11.4889 124.018 11.6289 124.017 11.793ZM44.419 22.0004V16.9095H46.4574C46.8319 16.9095 47.1443 16.965 47.3945 17.076C47.6448 17.187 47.8329 17.3412 47.9588 17.5384C48.0848 17.7339 48.1477 17.9593 48.1477 18.2145C48.1477 18.4134 48.108 18.5882 48.0284 18.739C47.9489 18.8882 47.8395 19.0108 47.7003 19.1069C47.5627 19.2014 47.4053 19.2685 47.228 19.3082V19.358C47.4219 19.3663 47.6033 19.4209 47.7724 19.522C47.9431 19.6231 48.0814 19.7648 48.1875 19.9471C48.2936 20.1277 48.3466 20.3432 48.3466 20.5934C48.3466 20.8635 48.2795 21.1047 48.1452 21.3168C48.0127 21.5272 47.8163 21.6938 47.5561 21.8164C47.2959 21.939 46.9753 22.0004 46.5941 22.0004H44.419ZM45.4954 21.1204H46.3729C46.6728 21.1204 46.8916 21.0632 47.0291 20.9489C47.1667 20.8329 47.2354 20.6788 47.2354 20.4865C47.2354 20.3457 47.2015 20.2214 47.1335 20.1136C47.0656 20.0059 46.9686 19.9214 46.8427 19.8601C46.7184 19.7988 46.5701 19.7681 46.3977 19.7681H45.4954V21.1204ZM45.4954 19.0398H46.2933C46.4408 19.0398 46.5717 19.0141 46.6861 18.9627C46.8021 18.9097 46.8932 18.8351 46.9595 18.739C47.0275 18.6429 47.0614 18.5277 47.0614 18.3935C47.0614 18.2095 46.996 18.0612 46.8651 17.9485C46.7358 17.8358 46.5518 17.7795 46.3132 17.7795H45.4954V19.0398ZM51.4756 20.3747V18.1822H52.5345V22.0004H51.5178V21.3068H51.4781C51.3919 21.5306 51.2486 21.7104 51.048 21.8462C50.8492 21.9821 50.6064 22.0501 50.3197 22.0501C50.0645 22.0501 49.8399 21.9921 49.646 21.8761C49.4521 21.7601 49.3005 21.5952 49.1911 21.3814C49.0834 21.1676 49.0287 20.9116 49.0271 20.6133V18.1822H50.086V20.4244C50.0877 20.6498 50.1482 20.8279 50.2675 20.9588C50.3868 21.0897 50.5467 21.1552 50.7472 21.1552C50.8749 21.1552 50.9942 21.1262 51.1052 21.0682C51.2162 21.0085 51.3057 20.9207 51.3737 20.8047C51.4433 20.6887 51.4772 20.5453 51.4756 20.3747ZM54.7885 22.0625C54.4985 22.0625 54.2359 21.9879 54.0005 21.8388C53.7669 21.688 53.5813 21.4667 53.4437 21.1751C53.3078 20.8818 53.2399 20.5221 53.2399 20.0962C53.2399 19.6587 53.3103 19.295 53.4512 19.005C53.592 18.7133 53.7793 18.4954 54.013 18.3512C54.2483 18.2054 54.506 18.1325 54.786 18.1325C54.9998 18.1325 55.178 18.1689 55.3205 18.2418C55.4647 18.3131 55.5807 18.4026 55.6685 18.5103C55.758 18.6164 55.8259 18.7208 55.8723 18.8235H55.9047V16.9095H56.9611V22.0004H55.9171V21.3889H55.8723C55.8226 21.4949 55.7522 21.6002 55.661 21.7046C55.5716 21.8073 55.4547 21.8926 55.3105 21.9606C55.168 22.0285 54.994 22.0625 54.7885 22.0625ZM55.1241 21.2198C55.2948 21.2198 55.439 21.1734 55.5566 21.0806C55.676 20.9862 55.7671 20.8544 55.8301 20.6854C55.8947 20.5163 55.927 20.3183 55.927 20.0913C55.927 19.8642 55.8955 19.667 55.8326 19.4997C55.7696 19.3323 55.6784 19.203 55.5591 19.1119C55.4398 19.0207 55.2948 18.9752 55.1241 18.9752C54.9501 18.9752 54.8034 19.0224 54.6841 19.1168C54.5648 19.2113 54.4745 19.3422 54.4132 19.5096C54.3519 19.677 54.3212 19.8709 54.3212 20.0913C54.3212 20.3133 54.3519 20.5097 54.4132 20.6804C54.4761 20.8494 54.5665 20.982 54.6841 21.0781C54.8034 21.1726 54.9501 21.2198 55.1241 21.2198ZM57.8318 22.0004V18.1822H58.8907V22.0004H57.8318ZM58.3637 17.69C58.2063 17.69 58.0712 17.6378 57.9585 17.5334C57.8475 17.4273 57.792 17.3006 57.792 17.1531C57.792 17.0072 57.8475 16.8821 57.9585 16.7777C58.0712 16.6716 58.2063 16.6186 58.3637 16.6186C58.5212 16.6186 58.6554 16.6716 58.7664 16.7777C58.8791 16.8821 58.9355 17.0072 58.9355 17.1531C58.9355 17.3006 58.8791 17.4273 58.7664 17.5334C58.6554 17.6378 58.5212 17.69 58.3637 17.69ZM62.9158 19.271L61.9464 19.3306C61.9298 19.2478 61.8942 19.1732 61.8395 19.1069C61.7848 19.039 61.7127 18.9851 61.6232 18.9453C61.5354 18.9039 61.4302 18.8832 61.3075 18.8832C61.1435 18.8832 61.0051 18.918 60.8924 18.9876C60.7797 19.0555 60.7234 19.1467 60.7234 19.261C60.7234 19.3522 60.7598 19.4292 60.8327 19.4922C60.9057 19.5552 61.0308 19.6057 61.2081 19.6438L61.8991 19.783C62.2704 19.8593 62.5471 19.9819 62.7294 20.1509C62.9117 20.32 63.0028 20.542 63.0028 20.8171C63.0028 21.0674 62.9291 21.2869 62.7816 21.4759C62.6358 21.6648 62.4353 21.8123 62.18 21.9183C61.9265 22.0227 61.634 22.0749 61.3026 22.0749C60.7971 22.0749 60.3944 21.9697 60.0945 21.7592C59.7962 21.5471 59.6213 21.2588 59.57 20.8942L60.6115 20.8395C60.643 20.9936 60.7192 21.1113 60.8402 21.1925C60.9612 21.272 61.1161 21.3118 61.305 21.3118C61.4906 21.3118 61.6398 21.2762 61.7525 21.2049C61.8668 21.132 61.9248 21.0384 61.9265 20.924C61.9248 20.8279 61.8842 20.7492 61.8047 20.6879C61.7251 20.6249 61.6025 20.5768 61.4368 20.5437L60.7756 20.4119C60.4027 20.3374 60.1251 20.2081 59.9428 20.0242C59.7622 19.8402 59.6719 19.6057 59.6719 19.3207C59.6719 19.0754 59.7382 18.8641 59.8707 18.6868C60.005 18.5095 60.1931 18.3728 60.435 18.2766C60.6786 18.1805 60.9637 18.1325 61.2901 18.1325C61.7724 18.1325 62.1519 18.2344 62.4286 18.4382C62.707 18.6421 62.8694 18.9196 62.9158 19.271ZM63.6697 22.0004V18.1822H64.6789V18.8558H64.7236C64.8032 18.6321 64.9358 18.4556 65.1214 18.3264C65.307 18.1971 65.529 18.1325 65.7876 18.1325C66.0494 18.1325 66.2723 18.1979 66.4562 18.3288C66.6402 18.4581 66.7628 18.6338 66.8241 18.8558H66.8639C66.9418 18.6371 67.0827 18.4623 67.2865 18.3313C67.492 18.1988 67.7348 18.1325 68.0148 18.1325C68.3711 18.1325 68.6603 18.246 68.8824 18.473C69.1061 18.6984 69.218 19.0182 69.218 19.4325V22.0004H68.1615V19.6413C68.1615 19.4292 68.1051 19.2701 67.9925 19.1641C67.8798 19.058 67.7389 19.005 67.5699 19.005C67.3776 19.005 67.2277 19.0663 67.1199 19.1889C67.0122 19.3099 66.9584 19.4698 66.9584 19.6687V22.0004H65.9317V19.619C65.9317 19.4317 65.8779 19.2826 65.7702 19.1715C65.6641 19.0605 65.5241 19.005 65.3501 19.005C65.2324 19.005 65.1263 19.0348 65.0319 19.0945C64.9391 19.1525 64.8653 19.2345 64.8106 19.3406C64.7559 19.445 64.7286 19.5676 64.7286 19.7085V22.0004H63.6697ZM71.7796 22.0749C71.3934 22.0749 71.0595 21.9929 70.7778 21.8288C70.4977 21.6631 70.2815 21.4328 70.129 21.1378C69.9765 20.8412 69.9003 20.4973 69.9003 20.1062C69.9003 19.7118 69.9765 19.3671 70.129 19.0721C70.2815 18.7755 70.4977 18.5451 70.7778 18.381C71.0595 18.2153 71.3934 18.1325 71.7796 18.1325C72.1657 18.1325 72.4988 18.2153 72.7789 18.381C73.0606 18.5451 73.2777 18.7755 73.4301 19.0721C73.5826 19.3671 73.6588 19.7118 73.6588 20.1062C73.6588 20.4973 73.5826 20.8412 73.4301 21.1378C73.2777 21.4328 73.0606 21.6631 72.7789 21.8288C72.4988 21.9929 72.1657 22.0749 71.7796 22.0749ZM71.7845 21.2546C71.9602 21.2546 72.1069 21.2049 72.2245 21.1055C72.3422 21.0044 72.4308 20.8668 72.4905 20.6928C72.5518 20.5188 72.5825 20.3208 72.5825 20.0987C72.5825 19.8767 72.5518 19.6786 72.4905 19.5046C72.4308 19.3306 72.3422 19.1931 72.2245 19.092C72.1069 18.9909 71.9602 18.9404 71.7845 18.9404C71.6072 18.9404 71.4581 18.9909 71.3371 19.092C71.2178 19.1931 71.1275 19.3306 71.0661 19.5046C71.0065 19.6786 70.9767 19.8767 70.9767 20.0987C70.9767 20.3208 71.0065 20.5188 71.0661 20.6928C71.1275 20.8668 71.2178 21.0044 71.3371 21.1055C71.4581 21.2049 71.6072 21.2546 71.7845 21.2546ZM80.4792 18.6918H79.3904C79.3706 18.5509 79.33 18.4258 79.2686 18.3164C79.2073 18.2054 79.1286 18.1109 79.0325 18.033C78.9364 17.9551 78.8253 17.8955 78.6994 17.8541C78.5751 17.8126 78.44 17.7919 78.2942 17.7919C78.0307 17.7919 77.8012 17.8574 77.6056 17.9883C77.4101 18.1176 77.2585 18.3065 77.1507 18.5551C77.043 18.802 76.9892 19.1019 76.9892 19.4549C76.9892 19.8178 77.043 20.1228 77.1507 20.3697C77.2601 20.6166 77.4126 20.803 77.6081 20.929C77.8037 21.0549 78.0299 21.1179 78.2868 21.1179C78.4309 21.1179 78.5643 21.0989 78.687 21.0607C78.8113 21.0226 78.9215 20.9671 79.0176 20.8942C79.1137 20.8196 79.1932 20.7293 79.2562 20.6232C79.3208 20.5172 79.3656 20.3962 79.3904 20.2603L80.4792 20.2653C80.4511 20.4989 80.3806 20.7243 80.2679 20.9414C80.1569 21.1569 80.0069 21.3499 79.818 21.5206C79.6307 21.6896 79.407 21.8239 79.1468 21.9233C78.8883 22.0211 78.5958 22.07 78.2694 22.07C77.8153 22.07 77.4093 21.9672 77.0513 21.7617C76.695 21.5562 76.4133 21.2588 76.2061 20.8693C76.0007 20.4799 75.8979 20.0084 75.8979 19.4549C75.8979 18.8998 76.0023 18.4274 76.2111 18.038C76.4199 17.6486 76.7033 17.3519 77.0613 17.1481C77.4192 16.9426 77.8219 16.8399 78.2694 16.8399C78.5643 16.8399 78.8378 16.8813 79.0897 16.9641C79.3432 17.047 79.5678 17.168 79.7633 17.3271C79.9589 17.4845 80.118 17.6776 80.2406 17.9063C80.3649 18.135 80.4444 18.3968 80.4792 18.6918ZM82.2901 19.793V22.0004H81.2312V16.9095H82.2603V18.8558H82.305C82.3912 18.6305 82.5304 18.454 82.7227 18.3264C82.9149 18.1971 83.156 18.1325 83.446 18.1325C83.7112 18.1325 83.9424 18.1905 84.1396 18.3065C84.3384 18.4208 84.4925 18.5857 84.6019 18.8011C84.713 19.0149 84.7676 19.271 84.766 19.5693V22.0004H83.707V19.7582C83.7087 19.5229 83.649 19.3397 83.5281 19.2088C83.4087 19.0779 83.2414 19.0124 83.0259 19.0124C82.8817 19.0124 82.7541 19.0431 82.6431 19.1044C82.5337 19.1657 82.4476 19.2552 82.3846 19.3729C82.3233 19.4889 82.2918 19.6289 82.2901 19.793ZM86.6881 22.0725C86.4445 22.0725 86.2274 22.0302 86.0368 21.9457C85.8463 21.8595 85.6955 21.7327 85.5844 21.5654C85.4751 21.3963 85.4204 21.1859 85.4204 20.934C85.4204 20.7218 85.4593 20.5437 85.5372 20.3995C85.6151 20.2553 85.7211 20.1393 85.8554 20.0515C85.9896 19.9637 86.1421 19.8974 86.3128 19.8526C86.4851 19.8079 86.6657 19.7764 86.8547 19.7582C87.0767 19.735 87.2557 19.7134 87.3916 19.6935C87.5275 19.672 87.6261 19.6405 87.6874 19.5991C87.7487 19.5577 87.7794 19.4963 87.7794 19.4151V19.4002C87.7794 19.2428 87.7297 19.121 87.6302 19.0348C87.5325 18.9486 87.3933 18.9056 87.2126 18.9056C87.022 18.9056 86.8704 18.9478 86.7577 19.0323C86.645 19.1152 86.5705 19.2196 86.534 19.3455L85.5546 19.266C85.6043 19.034 85.7021 18.8335 85.8479 18.6644C85.9938 18.4937 86.1818 18.3628 86.4122 18.2717C86.6442 18.1789 86.9127 18.1325 87.2176 18.1325C87.4297 18.1325 87.6327 18.1573 87.8266 18.207C88.0222 18.2568 88.1953 18.3338 88.3461 18.4382C88.4986 18.5426 88.6188 18.6769 88.7066 18.8409C88.7944 19.0033 88.8383 19.198 88.8383 19.4251V22.0004H87.8341V21.4709H87.8042C87.7429 21.5902 87.6609 21.6954 87.5581 21.7866C87.4554 21.8761 87.3319 21.9465 87.1878 21.9979C87.0436 22.0476 86.877 22.0725 86.6881 22.0725ZM86.9914 21.3416C87.1472 21.3416 87.2847 21.311 87.404 21.2497C87.5233 21.1867 87.617 21.1022 87.6849 20.9961C87.7529 20.89 87.7868 20.7699 87.7868 20.6357V20.2305C87.7537 20.252 87.7081 20.2719 87.6501 20.2901C87.5938 20.3067 87.53 20.3225 87.4587 20.3374C87.3875 20.3506 87.3162 20.3631 87.2449 20.3747C87.1737 20.3846 87.109 20.3937 87.051 20.402C86.9268 20.4202 86.8182 20.4492 86.7254 20.489C86.6326 20.5288 86.5605 20.5826 86.5091 20.6506C86.4578 20.7169 86.4321 20.7997 86.4321 20.8992C86.4321 21.0433 86.4843 21.1535 86.5887 21.2298C86.6948 21.3043 86.829 21.3416 86.9914 21.3416ZM90.7188 19.793V22.0004H89.6599V18.1822H90.6691V18.8558H90.7139C90.7984 18.6338 90.9401 18.4581 91.1389 18.3288C91.3378 18.1979 91.5789 18.1325 91.8623 18.1325C92.1275 18.1325 92.3586 18.1905 92.5558 18.3065C92.753 18.4225 92.9063 18.5882 93.0157 18.8036C93.1251 19.0174 93.1798 19.2726 93.1798 19.5693V22.0004H92.1208V19.7582C92.1225 19.5245 92.0628 19.3422 91.9419 19.2113C91.8209 19.0787 91.6543 19.0124 91.4422 19.0124C91.2997 19.0124 91.1737 19.0431 91.0644 19.1044C90.9566 19.1657 90.8721 19.2552 90.8108 19.3729C90.7512 19.4889 90.7205 19.6289 90.7188 19.793ZM96.2317 16.6708L94.5911 22.766H93.6788L95.3194 16.6708H96.2317ZM96.7071 22.0004V21.3615L99.2476 17.7969H96.7021V16.9095H100.6V17.5483L98.0569 21.1129H100.605V22.0004H96.7071ZM103.151 22.0749C102.758 22.0749 102.42 21.9954 102.137 21.8363C101.855 21.6756 101.638 21.4485 101.485 21.1552C101.333 20.8602 101.257 20.5114 101.257 20.1087C101.257 19.7159 101.333 19.3712 101.485 19.0746C101.638 18.7779 101.853 18.5468 102.129 18.381C102.408 18.2153 102.734 18.1325 103.109 18.1325C103.361 18.1325 103.595 18.1731 103.812 18.2543C104.031 18.3338 104.221 18.454 104.384 18.6147C104.548 18.7755 104.676 18.9776 104.767 19.2212C104.858 19.4632 104.903 19.7466 104.903 20.0714V20.3622H101.679V19.706H103.907C103.907 19.5535 103.873 19.4185 103.807 19.3008C103.741 19.1831 103.649 19.0912 103.531 19.0249C103.415 18.9569 103.28 18.923 103.126 18.923C102.965 18.923 102.823 18.9602 102.699 19.0348C102.576 19.1077 102.48 19.2063 102.41 19.3306C102.341 19.4533 102.305 19.59 102.303 19.7408V20.3647C102.303 20.5536 102.338 20.7169 102.408 20.8544C102.479 20.992 102.579 21.098 102.708 21.1726C102.838 21.2472 102.991 21.2845 103.168 21.2845C103.286 21.2845 103.394 21.2679 103.491 21.2347C103.589 21.2016 103.673 21.1519 103.743 21.0856C103.812 21.0193 103.865 20.9381 103.902 20.842L104.881 20.9066C104.831 21.1419 104.729 21.3474 104.575 21.5231C104.423 21.6971 104.226 21.833 103.984 21.9308C103.743 22.0269 103.466 22.0749 103.151 22.0749ZM106.653 19.793V22.0004H105.594V18.1822H106.604V18.8558H106.648C106.733 18.6338 106.875 18.4581 107.074 18.3288C107.272 18.1979 107.513 18.1325 107.797 18.1325C108.062 18.1325 108.293 18.1905 108.49 18.3065C108.688 18.4225 108.841 18.5882 108.95 18.8036C109.06 19.0174 109.114 19.2726 109.114 19.5693V22.0004H108.055V19.7582C108.057 19.5245 107.997 19.3422 107.876 19.2113C107.755 19.0787 107.589 19.0124 107.377 19.0124C107.234 19.0124 107.108 19.0431 106.999 19.1044C106.891 19.1657 106.807 19.2552 106.745 19.3729C106.686 19.4889 106.655 19.6289 106.653 19.793ZM111.589 22.0004V16.9095H112.665V21.1129H114.848V22.0004H111.589ZM116.63 22.0725C116.386 22.0725 116.169 22.0302 115.978 21.9457C115.788 21.8595 115.637 21.7327 115.526 21.5654C115.416 21.3963 115.362 21.1859 115.362 20.934C115.362 20.7218 115.401 20.5437 115.479 20.3995C115.556 20.2553 115.663 20.1393 115.797 20.0515C115.931 19.9637 116.083 19.8974 116.254 19.8526C116.427 19.8079 116.607 19.7764 116.796 19.7582C117.018 19.735 117.197 19.7134 117.333 19.6935C117.469 19.672 117.568 19.6405 117.629 19.5991C117.69 19.5577 117.721 19.4963 117.721 19.4151V19.4002C117.721 19.2428 117.671 19.121 117.572 19.0348C117.474 18.9486 117.335 18.9056 117.154 18.9056C116.963 18.9056 116.812 18.9478 116.699 19.0323C116.586 19.1152 116.512 19.2196 116.475 19.3455L115.496 19.266C115.546 19.034 115.643 18.8335 115.789 18.6644C115.935 18.4937 116.123 18.3628 116.354 18.2717C116.586 18.1789 116.854 18.1325 117.159 18.1325C117.371 18.1325 117.574 18.1573 117.768 18.207C117.964 18.2568 118.137 18.3338 118.288 18.4382C118.44 18.5426 118.56 18.6769 118.648 18.8409C118.736 19.0033 118.78 19.198 118.78 19.4251V22.0004H117.775V21.4709H117.746C117.684 21.5902 117.602 21.6954 117.5 21.7866C117.397 21.8761 117.273 21.9465 117.129 21.9979C116.985 22.0476 116.818 22.0725 116.63 22.0725ZM116.933 21.3416C117.089 21.3416 117.226 21.311 117.345 21.2497C117.465 21.1867 117.558 21.1022 117.626 20.9961C117.694 20.89 117.728 20.7699 117.728 20.6357V20.2305C117.695 20.252 117.65 20.2719 117.592 20.2901C117.535 20.3067 117.471 20.3225 117.4 20.3374C117.329 20.3506 117.258 20.3631 117.186 20.3747C117.115 20.3846 117.05 20.3937 116.992 20.402C116.868 20.4202 116.76 20.4492 116.667 20.489C116.574 20.5288 116.502 20.5826 116.451 20.6506C116.399 20.7169 116.373 20.7997 116.373 20.8992C116.373 21.0433 116.426 21.1535 116.53 21.2298C116.636 21.3043 116.77 21.3416 116.933 21.3416ZM121.632 18.1822V18.9776H119.333V18.1822H121.632ZM119.855 17.2674H120.914V20.8271C120.914 20.9248 120.929 21.0011 120.959 21.0558C120.988 21.1088 121.03 21.1461 121.083 21.1676C121.138 21.1892 121.2 21.1999 121.272 21.1999C121.321 21.1999 121.371 21.1958 121.421 21.1875C121.471 21.1776 121.509 21.1701 121.535 21.1651L121.702 21.9531C121.649 21.9697 121.574 21.9888 121.478 22.0103C121.382 22.0335 121.265 22.0476 121.128 22.0526C120.872 22.0625 120.649 22.0285 120.456 21.9507C120.266 21.8728 120.118 21.7518 120.011 21.5877C119.905 21.4237 119.853 21.2165 119.855 20.9663V17.2674ZM122.322 22.0004V18.1822H123.381V22.0004H122.322ZM122.854 17.69C122.697 17.69 122.561 17.6378 122.449 17.5334C122.338 17.4273 122.282 17.3006 122.282 17.1531C122.282 17.0072 122.338 16.8821 122.449 16.7777C122.561 16.6716 122.697 16.6186 122.854 16.6186C123.011 16.6186 123.146 16.6716 123.257 16.7777C123.369 16.8821 123.426 17.0072 123.426 17.1531C123.426 17.3006 123.369 17.4273 123.257 17.5334C123.146 17.6378 123.011 17.69 122.854 17.69ZM125.288 19.793V22.0004H124.229V18.1822H125.238V18.8558H125.283C125.368 18.6338 125.509 18.4581 125.708 18.3288C125.907 18.1979 126.148 18.1325 126.432 18.1325C126.697 18.1325 126.928 18.1905 127.125 18.3065C127.322 18.4225 127.476 18.5882 127.585 18.8036C127.694 19.0174 127.749 19.2726 127.749 19.5693V22.0004H126.69V19.7582C126.692 19.5245 126.632 19.3422 126.511 19.2113C126.39 19.0787 126.224 19.0124 126.012 19.0124C125.869 19.0124 125.743 19.0431 125.634 19.1044C125.526 19.1657 125.441 19.2552 125.38 19.3729C125.32 19.4889 125.29 19.6289 125.288 19.793ZM130.309 22.0749C129.923 22.0749 129.589 21.9929 129.307 21.8288C129.027 21.6631 128.811 21.4328 128.658 21.1378C128.506 20.8412 128.43 20.4973 128.43 20.1062C128.43 19.7118 128.506 19.3671 128.658 19.0721C128.811 18.7755 129.027 18.5451 129.307 18.381C129.589 18.2153 129.923 18.1325 130.309 18.1325C130.695 18.1325 131.028 18.2153 131.308 18.381C131.59 18.5451 131.807 18.7755 131.959 19.0721C132.112 19.3671 132.188 19.7118 132.188 20.1062C132.188 20.4973 132.112 20.8412 131.959 21.1378C131.807 21.4328 131.59 21.6631 131.308 21.8288C131.028 21.9929 130.695 22.0749 130.309 22.0749ZM130.314 21.2546C130.489 21.2546 130.636 21.2049 130.754 21.1055C130.871 21.0044 130.96 20.8668 131.02 20.6928C131.081 20.5188 131.112 20.3208 131.112 20.0987C131.112 19.8767 131.081 19.6786 131.02 19.5046C130.96 19.3306 130.871 19.1931 130.754 19.092C130.636 18.9909 130.489 18.9404 130.314 18.9404C130.137 18.9404 129.987 18.9909 129.866 19.092C129.747 19.1931 129.657 19.3306 129.595 19.5046C129.536 19.6786 129.506 19.8767 129.506 20.0987C129.506 20.3208 129.536 20.5188 129.595 20.6928C129.657 20.8668 129.747 21.0044 129.866 21.1055C129.987 21.2049 130.137 21.2546 130.314 21.2546ZM133.965 22.0725C133.722 22.0725 133.505 22.0302 133.314 21.9457C133.124 21.8595 132.973 21.7327 132.862 21.5654C132.752 21.3963 132.698 21.1859 132.698 20.934C132.698 20.7218 132.737 20.5437 132.815 20.3995C132.892 20.2553 132.998 20.1393 133.133 20.0515C133.267 19.9637 133.419 19.8974 133.59 19.8526C133.762 19.8079 133.943 19.7764 134.132 19.7582C134.354 19.735 134.533 19.7134 134.669 19.6935C134.805 19.672 134.903 19.6405 134.965 19.5991C135.026 19.5577 135.057 19.4963 135.057 19.4151V19.4002C135.057 19.2428 135.007 19.121 134.908 19.0348C134.81 18.9486 134.671 18.9056 134.49 18.9056C134.299 18.9056 134.148 18.9478 134.035 19.0323C133.922 19.1152 133.848 19.2196 133.811 19.3455L132.832 19.266C132.882 19.034 132.979 18.8335 133.125 18.6644C133.271 18.4937 133.459 18.3628 133.69 18.2717C133.922 18.1789 134.19 18.1325 134.495 18.1325C134.707 18.1325 134.91 18.1573 135.104 18.207C135.3 18.2568 135.473 18.3338 135.623 18.4382C135.776 18.5426 135.896 18.6769 135.984 18.8409C136.072 19.0033 136.116 19.198 136.116 19.4251V22.0004H135.111V21.4709H135.082C135.02 21.5902 134.938 21.6954 134.835 21.7866C134.733 21.8761 134.609 21.9465 134.465 21.9979C134.321 22.0476 134.154 22.0725 133.965 22.0725ZM134.269 21.3416C134.425 21.3416 134.562 21.311 134.681 21.2497C134.801 21.1867 134.894 21.1022 134.962 20.9961C135.03 20.89 135.064 20.7699 135.064 20.6357V20.2305C135.031 20.252 134.985 20.2719 134.927 20.2901C134.871 20.3067 134.807 20.3225 134.736 20.3374C134.665 20.3506 134.594 20.3631 134.522 20.3747C134.451 20.3846 134.386 20.3937 134.328 20.402C134.204 20.4202 134.096 20.4492 134.003 20.489C133.91 20.5288 133.838 20.5826 133.786 20.6506C133.735 20.7169 133.709 20.7997 133.709 20.8992C133.709 21.0433 133.762 21.1535 133.866 21.2298C133.972 21.3043 134.106 21.3416 134.269 21.3416ZM136.937 22.0004V18.1822H137.946V18.8558H137.991C138.071 18.6321 138.203 18.4556 138.389 18.3264C138.575 18.1971 138.797 18.1325 139.055 18.1325C139.317 18.1325 139.54 18.1979 139.724 18.3288C139.908 18.4581 140.03 18.6338 140.092 18.8558H140.131C140.209 18.6371 140.35 18.4623 140.554 18.3313C140.76 18.1988 141.002 18.1325 141.282 18.1325C141.639 18.1325 141.928 18.246 142.15 18.473C142.374 18.6984 142.486 19.0182 142.486 19.4325V22.0004H141.429V19.6413C141.429 19.4292 141.373 19.2701 141.26 19.1641C141.147 19.058 141.006 19.005 140.837 19.005C140.645 19.005 140.495 19.0663 140.388 19.1889C140.28 19.3099 140.226 19.4698 140.226 19.6687V22.0004H139.199V19.619C139.199 19.4317 139.145 19.2826 139.038 19.1715C138.932 19.0605 138.792 19.005 138.618 19.005C138.5 19.005 138.394 19.0348 138.299 19.0945C138.207 19.1525 138.133 19.2345 138.078 19.3406C138.024 19.445 137.996 19.5676 137.996 19.7085V22.0004H136.937ZM145.062 22.0749C144.669 22.0749 144.331 21.9954 144.048 21.8363C143.766 21.6756 143.549 21.4485 143.397 21.1552C143.244 20.8602 143.168 20.5114 143.168 20.1087C143.168 19.7159 143.244 19.3712 143.397 19.0746C143.549 18.7779 143.764 18.5468 144.04 18.381C144.319 18.2153 144.645 18.1325 145.02 18.1325C145.272 18.1325 145.506 18.1731 145.723 18.2543C145.942 18.3338 146.133 18.454 146.295 18.6147C146.459 18.7755 146.587 18.9776 146.678 19.2212C146.769 19.4632 146.815 19.7466 146.815 20.0714V20.3622H143.59V19.706H145.818C145.818 19.5535 145.785 19.4185 145.718 19.3008C145.652 19.1831 145.56 19.0912 145.442 19.0249C145.326 18.9569 145.191 18.923 145.037 18.923C144.876 18.923 144.734 18.9602 144.61 19.0348C144.487 19.1077 144.391 19.2063 144.321 19.3306C144.252 19.4533 144.216 19.59 144.214 19.7408V20.3647C144.214 20.5536 144.249 20.7169 144.319 20.8544C144.39 20.992 144.49 21.098 144.62 21.1726C144.749 21.2472 144.902 21.2845 145.079 21.2845C145.197 21.2845 145.305 21.2679 145.403 21.2347C145.5 21.2016 145.584 21.1519 145.654 21.0856C145.723 21.0193 145.776 20.9381 145.813 20.842L146.792 20.9066C146.742 21.1419 146.641 21.3474 146.486 21.5231C146.334 21.6971 146.137 21.833 145.895 21.9308C145.655 22.0269 145.377 22.0749 145.062 22.0749ZM147.506 22.0004V18.1822H148.532V18.8484H148.572C148.642 18.6114 148.758 18.4324 148.922 18.3114C149.087 18.1888 149.275 18.1275 149.489 18.1275C149.542 18.1275 149.599 18.1308 149.661 18.1374C149.722 18.1441 149.776 18.1532 149.822 18.1648V19.1044C149.773 19.0895 149.704 19.0762 149.616 19.0646C149.528 19.053 149.448 19.0472 149.375 19.0472C149.219 19.0472 149.08 19.0812 148.957 19.1492C148.836 19.2154 148.74 19.3082 148.669 19.4276C148.599 19.5469 148.565 19.6844 148.565 19.8402V22.0004H147.506ZM150.37 22.0004V18.1822H151.429V22.0004H150.37ZM150.902 17.69C150.744 17.69 150.609 17.6378 150.497 17.5334C150.386 17.4273 150.33 17.3006 150.33 17.1531C150.33 17.0072 150.386 16.8821 150.497 16.7777C150.609 16.6716 150.744 16.6186 150.902 16.6186C151.059 16.6186 151.193 16.6716 151.305 16.7777C151.417 16.8821 151.474 17.0072 151.474 17.1531C151.474 17.3006 151.417 17.4273 151.305 17.5334C151.193 17.6378 151.059 17.69 150.902 17.69ZM154.002 22.0749C153.611 22.0749 153.275 21.9921 152.993 21.8264C152.713 21.659 152.497 21.427 152.347 21.1303C152.198 20.8337 152.123 20.4923 152.123 20.1062C152.123 19.7151 152.198 19.3721 152.349 19.0771C152.502 18.7804 152.718 18.5493 152.998 18.3835C153.278 18.2162 153.611 18.1325 153.997 18.1325C154.33 18.1325 154.622 18.193 154.872 18.3139C155.122 18.4349 155.321 18.6048 155.466 18.8235C155.612 19.0423 155.693 19.2991 155.707 19.5941H154.708C154.68 19.4035 154.605 19.2502 154.484 19.1342C154.365 19.0166 154.209 18.9578 154.015 18.9578C153.851 18.9578 153.707 19.0025 153.585 19.092C153.464 19.1798 153.369 19.3082 153.301 19.4773C153.233 19.6463 153.199 19.851 153.199 20.0913C153.199 20.3349 153.232 20.542 153.299 20.7127C153.367 20.8834 153.462 21.0135 153.585 21.103C153.707 21.1925 153.851 21.2372 154.015 21.2372C154.136 21.2372 154.244 21.2124 154.34 21.1627C154.438 21.1129 154.518 21.0408 154.581 20.9464C154.646 20.8503 154.688 20.7351 154.708 20.6009H155.707C155.691 20.8925 155.611 21.1494 155.469 21.3715C155.328 21.5919 155.133 21.7642 154.885 21.8885C154.636 22.0128 154.342 22.0749 154.002 22.0749ZM157.474 22.0725C157.231 22.0725 157.014 22.0302 156.823 21.9457C156.632 21.8595 156.482 21.7327 156.371 21.5654C156.261 21.3963 156.206 21.1859 156.206 20.934C156.206 20.7218 156.245 20.5437 156.323 20.3995C156.401 20.2553 156.507 20.1393 156.642 20.0515C156.776 19.9637 156.928 19.8974 157.099 19.8526C157.271 19.8079 157.452 19.7764 157.641 19.7582C157.863 19.735 158.042 19.7134 158.178 19.6935C158.314 19.672 158.412 19.6405 158.474 19.5991C158.535 19.5577 158.566 19.4963 158.566 19.4151V19.4002C158.566 19.2428 158.516 19.121 158.416 19.0348C158.319 18.9486 158.179 18.9056 157.999 18.9056C157.808 18.9056 157.657 18.9478 157.544 19.0323C157.431 19.1152 157.357 19.2196 157.32 19.3455L156.341 19.266C156.39 19.034 156.488 18.8335 156.634 18.6644C156.78 18.4937 156.968 18.3628 157.198 18.2717C157.43 18.1789 157.699 18.1325 158.004 18.1325C158.216 18.1325 158.419 18.1573 158.613 18.207C158.808 18.2568 158.981 18.3338 159.132 18.4382C159.285 18.5426 159.405 18.6769 159.493 18.8409C159.581 19.0033 159.624 19.198 159.624 19.4251V22.0004H158.62V21.4709H158.59C158.529 21.5902 158.447 21.6954 158.344 21.7866C158.242 21.8761 158.118 21.9465 157.974 21.9979C157.83 22.0476 157.663 22.0725 157.474 22.0725ZM157.778 21.3416C157.933 21.3416 158.071 21.311 158.19 21.2497C158.309 21.1867 158.403 21.1022 158.471 20.9961C158.539 20.89 158.573 20.7699 158.573 20.6357V20.2305C158.54 20.252 158.494 20.2719 158.436 20.2901C158.38 20.3067 158.316 20.3225 158.245 20.3374C158.174 20.3506 158.102 20.3631 158.031 20.3747C157.96 20.3846 157.895 20.3937 157.837 20.402C157.713 20.4202 157.604 20.4492 157.512 20.489C157.419 20.5288 157.347 20.5826 157.295 20.6506C157.244 20.7169 157.218 20.7997 157.218 20.8992C157.218 21.0433 157.27 21.1535 157.375 21.2298C157.481 21.3043 157.615 21.3416 157.778 21.3416Z" fill="black"/>
</svg>
