<svg width="68" height="13" viewBox="0 0 68 13" fill="none" xmlns="http://www.w3.org/2000/svg">
<path d="M2.83882 1.09091V12H0.202104V1.09091H2.83882ZM4.4941 1.09091H7.75937L10.5293 7.84517H10.6571L13.427 1.09091H16.6923V12H14.1248V5.29901H14.0342L11.4135 11.9308H9.77286L7.15212 5.26172H7.06157V12H4.4941V1.09091ZM18.3369 12V1.09091H22.8433C23.66 1.09091 24.3649 1.25071 24.958 1.57031C25.5546 1.88636 26.0144 2.32848 26.3376 2.89666C26.6607 3.46129 26.8223 4.11825 26.8223 4.86754C26.8223 5.62038 26.6572 6.27912 26.3269 6.84375C26.0002 7.40483 25.5332 7.83984 24.926 8.14879C24.3188 8.45774 23.5979 8.61222 22.7634 8.61222H19.9828V6.5348H22.2733C22.671 6.5348 23.0031 6.46555 23.2694 6.32706C23.5393 6.18857 23.7435 5.99503 23.882 5.74645C24.0205 5.49432 24.0897 5.20135 24.0897 4.86754C24.0897 4.53018 24.0205 4.23899 23.882 3.99396C23.7435 3.74538 23.5393 3.55362 23.2694 3.41868C22.9995 3.28374 22.6675 3.21626 22.2733 3.21626H20.9736V12H18.3369ZM28.122 12V1.09091H32.6284C33.4452 1.09091 34.1501 1.23828 34.7431 1.53303C35.3397 1.82422 35.7996 2.24325 36.1227 2.79013C36.4459 3.33345 36.6075 3.97798 36.6075 4.72372C36.6075 5.48011 36.4423 6.12287 36.1121 6.65199C35.7818 7.17756 35.3131 7.57884 34.7058 7.85582C34.0986 8.12926 33.3795 8.26598 32.5485 8.26598H29.6987V6.18857H32.0585C32.4562 6.18857 32.7882 6.13707 33.0546 6.03409C33.3244 5.92756 33.5286 5.76776 33.6671 5.55469C33.8056 5.33807 33.8749 5.06108 33.8749 4.72372C33.8749 4.38636 33.8056 4.1076 33.6671 3.88743C33.5286 3.66371 33.3244 3.4968 33.0546 3.38672C32.7847 3.27308 32.4526 3.21626 32.0585 3.21626H30.7587V12H28.122ZM34.2637 7.0142L36.9803 12H34.1039L31.4406 7.0142H34.2637ZM38.0537 12V1.09091H45.6602V3.23224H40.6904V5.46946H45.2714V7.61612H40.6904V9.85866H45.6602V12H38.0537ZM53.2081 4.36151C53.1726 3.97088 53.0146 3.66726 52.7341 3.45064C52.4571 3.23047 52.0611 3.12038 51.5462 3.12038C51.2053 3.12038 50.9212 3.16477 50.6939 3.25355C50.4667 3.34233 50.2962 3.46484 50.1826 3.62109C50.0689 3.77379 50.0103 3.94957 50.0068 4.14844C49.9997 4.31179 50.0316 4.45561 50.1027 4.5799C50.1772 4.70419 50.2838 4.81428 50.4223 4.91016C50.5643 5.00249 50.7348 5.08416 50.9336 5.15518C51.1325 5.22621 51.3562 5.28835 51.6048 5.34162L52.5423 5.55469C53.0821 5.67188 53.5579 5.82812 53.9699 6.02344C54.3853 6.21875 54.7334 6.45135 55.0139 6.72124C55.298 6.99112 55.5128 7.30185 55.6584 7.65341C55.804 8.00497 55.8786 8.39915 55.8821 8.83594C55.8786 9.52486 55.7046 10.1161 55.3601 10.6097C55.0157 11.1033 54.5203 11.4815 53.874 11.7443C53.2312 12.0071 52.4553 12.1385 51.5462 12.1385C50.6336 12.1385 49.8381 12.0018 49.1598 11.7283C48.4816 11.4549 47.9542 11.0394 47.5778 10.4819C47.2014 9.92436 47.0079 9.21946 46.9972 8.36719H49.5221C49.5434 8.71875 49.6375 9.01172 49.8044 9.24609C49.9713 9.48047 50.2003 9.65803 50.4915 9.77876C50.7863 9.8995 51.1272 9.95987 51.5142 9.95987C51.8694 9.95987 52.1712 9.91193 52.4198 9.81605C52.6719 9.72017 52.8655 9.587 53.0004 9.41655C53.1353 9.24609 53.2046 9.05078 53.2081 8.83061C53.2046 8.62464 53.1407 8.44886 53.0164 8.30327C52.8921 8.15412 52.7003 8.02628 52.4411 7.91974C52.1854 7.80966 51.8587 7.70845 51.461 7.61612L50.3211 7.34979C49.3765 7.13317 48.6325 6.78338 48.0892 6.30043C47.5459 5.81392 47.276 5.15696 47.2795 4.32955C47.276 3.65483 47.4571 3.06357 47.8228 2.55575C48.1886 2.04794 48.6946 1.65199 49.341 1.3679C49.9873 1.08381 50.7241 0.941761 51.5515 0.941761C52.3967 0.941761 53.13 1.08558 53.7515 1.37322C54.3765 1.65732 54.8612 2.05682 55.2057 2.57173C55.5501 3.08665 55.7259 3.68324 55.733 4.36151H53.2081ZM59.2366 12H56.4028L60.0836 1.09091H63.5939L67.2746 12H64.4408L61.8787 3.83949H61.7935L59.2366 12ZM58.8584 7.70668H64.7817V9.70952H58.8584V7.70668Z" fill="black"/>
</svg>
