<svg width="64" height="16" viewBox="0 0 64 16" fill="none" xmlns="http://www.w3.org/2000/svg">
<path d="M22.7443 3.27273V12H20.6605V3.27273H22.7443ZM25.3448 14.4545C25.0948 14.4545 24.859 14.4347 24.6374 14.3949C24.4158 14.358 24.2255 14.3082 24.0664 14.2457L24.5266 12.733C24.7312 12.8011 24.9158 12.8409 25.0806 12.8523C25.2482 12.8636 25.3917 12.8366 25.511 12.7713C25.6332 12.7088 25.7269 12.5966 25.7923 12.4347L25.8732 12.2386L23.5465 5.45455H25.7283L26.9343 10.125H27.0025L28.2255 5.45455H30.4201L27.9528 12.6264C27.8335 12.9844 27.6644 13.2997 27.4457 13.5724C27.2298 13.848 26.9499 14.0639 26.6062 14.2202C26.2653 14.3764 25.8448 14.4545 25.3448 14.4545ZM31.2191 12V3.27273H33.3029V6.57528H33.3455C33.4308 6.37642 33.5515 6.18466 33.7077 6C33.8668 5.81534 34.0685 5.66477 34.3129 5.5483C34.56 5.42898 34.8555 5.36932 35.1992 5.36932C35.6538 5.36932 36.0785 5.48864 36.4734 5.72727C36.8711 5.96591 37.1921 6.33381 37.4364 6.83097C37.6808 7.32812 37.8029 7.96165 37.8029 8.73153C37.8029 9.47301 37.685 10.0938 37.4492 10.5938C37.2163 11.0938 36.9009 11.4688 36.5032 11.7188C36.1083 11.9688 35.6694 12.0938 35.1864 12.0938C34.8569 12.0938 34.5714 12.0398 34.3299 11.9318C34.0884 11.8239 33.8853 11.6818 33.7205 11.5057C33.5586 11.3295 33.4336 11.1406 33.3455 10.9389H33.2816V12H31.2191ZM33.2603 8.72727C33.2603 9.07955 33.3072 9.38636 33.4009 9.64773C33.4975 9.90909 33.6353 10.1122 33.8143 10.2571C33.9961 10.3991 34.2134 10.4702 34.4663 10.4702C34.7219 10.4702 34.9393 10.3991 35.1183 10.2571C35.2972 10.1122 35.4322 9.90909 35.5231 9.64773C35.6168 9.38636 35.6637 9.07955 35.6637 8.72727C35.6637 8.375 35.6168 8.0696 35.5231 7.81108C35.4322 7.55256 35.2972 7.35227 35.1183 7.21023C34.9421 7.06818 34.7248 6.99716 34.4663 6.99716C34.2106 6.99716 33.9933 7.06676 33.8143 7.20597C33.6353 7.34517 33.4975 7.54403 33.4009 7.80256C33.3072 8.06108 33.2603 8.36932 33.2603 8.72727ZM39.9773 12L38.2727 5.45455H40.3651L41.2472 9.64773H41.3026L42.2486 5.45455H44.2898L45.2614 9.6179H45.3168L46.1733 5.45455H48.2656L46.5568 12H44.3281L43.3054 8.18608H43.233L42.2102 12H39.9773ZM52.021 12.1236C51.3363 12.1236 50.7454 11.9886 50.2482 11.7188C49.7539 11.446 49.3732 11.0582 49.1062 10.5554C48.842 10.0497 48.7099 9.44886 48.7099 8.75284C48.7099 8.0767 48.8434 7.4858 49.1104 6.98011C49.3775 6.47159 49.7539 6.0767 50.2397 5.79545C50.7255 5.51136 51.2979 5.36932 51.957 5.36932C52.4229 5.36932 52.8491 5.44176 53.2354 5.58665C53.6218 5.73153 53.9556 5.94602 54.2369 6.23011C54.5181 6.5142 54.7369 6.86506 54.8931 7.28267C55.0494 7.69744 55.1275 8.1733 55.1275 8.71023V9.23011H49.4386V8.01989H53.1886C53.1857 7.7983 53.1332 7.60085 53.0309 7.42756C52.9286 7.25426 52.788 7.11932 52.609 7.02273C52.4329 6.9233 52.2298 6.87358 51.9996 6.87358C51.7667 6.87358 51.5579 6.92614 51.3732 7.03125C51.1886 7.13352 51.0423 7.27415 50.9343 7.45312C50.8263 7.62926 50.7695 7.82955 50.7638 8.05398V9.28551C50.7638 9.55256 50.8164 9.78693 50.9215 9.98864C51.0266 10.1875 51.1758 10.3423 51.369 10.4531C51.5621 10.5639 51.7923 10.6193 52.0593 10.6193C52.244 10.6193 52.4116 10.5937 52.5621 10.5426C52.7127 10.4915 52.842 10.4162 52.9499 10.3168C53.0579 10.2173 53.1388 10.0952 53.1928 9.95028L55.1062 10.0057C55.0266 10.4347 54.8519 10.8082 54.582 11.1264C54.315 11.4418 53.9641 11.6875 53.5295 11.8636C53.0948 12.0369 52.592 12.1236 52.021 12.1236ZM56.1918 12V3.27273H58.2756V6.57528H58.3182C58.4034 6.37642 58.5241 6.18466 58.6804 6C58.8395 5.81534 59.0412 5.66477 59.2855 5.5483C59.5327 5.42898 59.8281 5.36932 60.1719 5.36932C60.6264 5.36932 61.0511 5.48864 61.446 5.72727C61.8438 5.96591 62.1648 6.33381 62.4091 6.83097C62.6534 7.32812 62.7756 7.96165 62.7756 8.73153C62.7756 9.47301 62.6577 10.0938 62.4219 10.5938C62.1889 11.0938 61.8736 11.4688 61.4759 11.7188C61.081 11.9688 60.642 12.0938 60.1591 12.0938C59.8295 12.0938 59.544 12.0398 59.3026 11.9318C59.0611 11.8239 58.858 11.6818 58.6932 11.5057C58.5312 11.3295 58.4063 11.1406 58.3182 10.9389H58.2543V12H56.1918ZM58.233 8.72727C58.233 9.07955 58.2798 9.38636 58.3736 9.64773C58.4702 9.90909 58.608 10.1122 58.7869 10.2571C58.9688 10.3991 59.1861 10.4702 59.4389 10.4702C59.6946 10.4702 59.9119 10.3991 60.0909 10.2571C60.2699 10.1122 60.4048 9.90909 60.4957 9.64773C60.5895 9.38636 60.6364 9.07955 60.6364 8.72727C60.6364 8.375 60.5895 8.0696 60.4957 7.81108C60.4048 7.55256 60.2699 7.35227 60.0909 7.21023C59.9148 7.06818 59.6974 6.99716 59.4389 6.99716C59.1832 6.99716 58.9659 7.06676 58.7869 7.20597C58.608 7.34517 58.4702 7.54403 58.3736 7.80256C58.2798 8.06108 58.233 8.36932 58.233 8.72727Z" fill="black"/>
<path d="M8 15C9.55166 14.9999 11.0594 14.4845 12.2863 13.5347C13.5133 12.5849 14.3902 11.2545 14.7791 9.75233M8 15C6.44833 14.9999 4.94064 14.4845 3.71365 13.5347C2.48665 12.5849 1.60984 11.2545 1.22089 9.75233M8 15C9.93277 15 11.5 11.8656 11.5 8C11.5 4.13445 9.93277 1 8 1M8 15C6.06722 15 4.5 11.8656 4.5 8C4.5 4.13445 6.06722 1 8 1M14.7791 9.75233C14.923 9.19233 15 8.60511 15 8C15.0019 6.79609 14.6919 5.61221 14.1001 4.56378M14.7791 9.75233C12.7049 10.9022 10.3716 11.5037 8 11.5C5.54067 11.5 3.22989 10.8661 1.22089 9.75233M1.22089 9.75233C1.07369 9.17987 0.999477 8.59109 1 8C1 6.75167 1.32667 5.57878 1.89989 4.56378M8 1C9.24152 0.999483 10.4608 1.32928 11.5328 1.95555C12.6048 2.58182 13.4909 3.48202 14.1001 4.56378M8 1C6.75848 0.999483 5.53917 1.32928 4.46718 1.95555C3.3952 2.58182 2.50913 3.48202 1.89989 4.56378M14.1001 4.56378C12.4066 6.03061 10.2404 6.83656 8 6.83333C5.66822 6.83333 3.53556 5.97778 1.89989 4.56378" stroke="black" stroke-width="1.5" stroke-linecap="round" stroke-linejoin="round"/>
</svg>
