<svg width="64" height="16" viewBox="0 0 64 16" fill="none" xmlns="http://www.w3.org/2000/svg">
<path d="M2.74432 4.27273V13H0.660511V4.27273H2.74432ZM5.34482 15.4545C5.09482 15.4545 4.85902 15.4347 4.63743 15.3949C4.41584 15.358 4.2255 15.3082 4.06641 15.2457L4.52663 13.733C4.73118 13.8011 4.91584 13.8409 5.08061 13.8523C5.24822 13.8636 5.39169 13.8366 5.51101 13.7713C5.63317 13.7088 5.72692 13.5966 5.79226 13.4347L5.87322 13.2386L3.54652 6.45455H5.72834L6.9343 11.125H7.00249L8.2255 6.45455H10.4201L7.95277 13.6264C7.83345 13.9844 7.66442 14.2997 7.44567 14.5724C7.22976 14.848 6.94993 15.0639 6.60618 15.2202C6.26527 15.3764 5.84482 15.4545 5.34482 15.4545ZM11.2191 13V4.27273H13.3029V7.57528H13.3455C13.4308 7.37642 13.5515 7.18466 13.7077 7C13.8668 6.81534 14.0685 6.66477 14.3129 6.5483C14.56 6.42898 14.8555 6.36932 15.1992 6.36932C15.6538 6.36932 16.0785 6.48864 16.4734 6.72727C16.8711 6.96591 17.1921 7.33381 17.4364 7.83097C17.6808 8.32812 17.8029 8.96165 17.8029 9.73153C17.8029 10.473 17.685 11.0938 17.4492 11.5938C17.2163 12.0938 16.9009 12.4688 16.5032 12.7188C16.1083 12.9688 15.6694 13.0938 15.1864 13.0938C14.8569 13.0938 14.5714 13.0398 14.3299 12.9318C14.0884 12.8239 13.8853 12.6818 13.7205 12.5057C13.5586 12.3295 13.4336 12.1406 13.3455 11.9389H13.2816V13H11.2191ZM13.2603 9.72727C13.2603 10.0795 13.3072 10.3864 13.4009 10.6477C13.4975 10.9091 13.6353 11.1122 13.8143 11.2571C13.9961 11.3991 14.2134 11.4702 14.4663 11.4702C14.7219 11.4702 14.9393 11.3991 15.1183 11.2571C15.2972 11.1122 15.4322 10.9091 15.5231 10.6477C15.6168 10.3864 15.6637 10.0795 15.6637 9.72727C15.6637 9.375 15.6168 9.0696 15.5231 8.81108C15.4322 8.55256 15.2972 8.35227 15.1183 8.21023C14.9421 8.06818 14.7248 7.99716 14.4663 7.99716C14.2106 7.99716 13.9933 8.06676 13.8143 8.20597C13.6353 8.34517 13.4975 8.54403 13.4009 8.80256C13.3072 9.06108 13.2603 9.36932 13.2603 9.72727ZM19.9773 13L18.2727 6.45455H20.3651L21.2472 10.6477H21.3026L22.2486 6.45455H24.2898L25.2614 10.6179H25.3168L26.1733 6.45455H28.2656L26.5568 13H24.3281L23.3054 9.18608H23.233L22.2102 13H19.9773ZM32.021 13.1236C31.3363 13.1236 30.7454 12.9886 30.2482 12.7188C29.7539 12.446 29.3732 12.0582 29.1062 11.5554C28.842 11.0497 28.7099 10.4489 28.7099 9.75284C28.7099 9.0767 28.8434 8.4858 29.1104 7.98011C29.3775 7.47159 29.7539 7.0767 30.2397 6.79545C30.7255 6.51136 31.2979 6.36932 31.957 6.36932C32.4229 6.36932 32.8491 6.44176 33.2354 6.58665C33.6218 6.73153 33.9556 6.94602 34.2369 7.23011C34.5181 7.5142 34.7369 7.86506 34.8931 8.28267C35.0494 8.69744 35.1275 9.1733 35.1275 9.71023V10.2301H29.4386V9.01989H33.1886C33.1857 8.7983 33.1332 8.60085 33.0309 8.42756C32.9286 8.25426 32.788 8.11932 32.609 8.02273C32.4329 7.9233 32.2298 7.87358 31.9996 7.87358C31.7667 7.87358 31.5579 7.92614 31.3732 8.03125C31.1886 8.13352 31.0423 8.27415 30.9343 8.45312C30.8263 8.62926 30.7695 8.82955 30.7638 9.05398V10.2855C30.7638 10.5526 30.8164 10.7869 30.9215 10.9886C31.0266 11.1875 31.1758 11.3423 31.369 11.4531C31.5621 11.5639 31.7923 11.6193 32.0593 11.6193C32.244 11.6193 32.4116 11.5937 32.5621 11.5426C32.7127 11.4915 32.842 11.4162 32.9499 11.3168C33.0579 11.2173 33.1388 11.0952 33.1928 10.9503L35.1062 11.0057C35.0266 11.4347 34.8519 11.8082 34.582 12.1264C34.315 12.4418 33.9641 12.6875 33.5295 12.8636C33.0948 13.0369 32.592 13.1236 32.021 13.1236ZM36.1918 13V4.27273H38.2756V7.57528H38.3182C38.4034 7.37642 38.5241 7.18466 38.6804 7C38.8395 6.81534 39.0412 6.66477 39.2855 6.5483C39.5327 6.42898 39.8281 6.36932 40.1719 6.36932C40.6264 6.36932 41.0511 6.48864 41.446 6.72727C41.8438 6.96591 42.1648 7.33381 42.4091 7.83097C42.6534 8.32812 42.7756 8.96165 42.7756 9.73153C42.7756 10.473 42.6577 11.0938 42.4219 11.5938C42.1889 12.0938 41.8736 12.4688 41.4759 12.7188C41.081 12.9688 40.642 13.0938 40.1591 13.0938C39.8295 13.0938 39.544 13.0398 39.3026 12.9318C39.0611 12.8239 38.858 12.6818 38.6932 12.5057C38.5312 12.3295 38.4063 12.1406 38.3182 11.9389H38.2543V13H36.1918ZM38.233 9.72727C38.233 10.0795 38.2798 10.3864 38.3736 10.6477C38.4702 10.9091 38.608 11.1122 38.7869 11.2571C38.9688 11.3991 39.1861 11.4702 39.4389 11.4702C39.6946 11.4702 39.9119 11.3991 40.0909 11.2571C40.2699 11.1122 40.4048 10.9091 40.4957 10.6477C40.5895 10.3864 40.6364 10.0795 40.6364 9.72727C40.6364 9.375 40.5895 9.0696 40.4957 8.81108C40.4048 8.55256 40.2699 8.35227 40.0909 8.21023C39.9148 8.06818 39.6974 7.99716 39.4389 7.99716C39.1832 7.99716 38.9659 8.06676 38.7869 8.20597C38.608 8.34517 38.4702 8.54403 38.3736 8.80256C38.2798 9.06108 38.233 9.36932 38.233 9.72727Z" fill="black"/>
<path d="M56 15C57.5517 14.9999 59.0594 14.4845 60.2863 13.5347C61.5133 12.5849 62.3902 11.2545 62.7791 9.75233M56 15C54.4483 14.9999 52.9406 14.4845 51.7136 13.5347C50.4866 12.5849 49.6098 11.2545 49.2209 9.75233M56 15C57.9328 15 59.5 11.8656 59.5 8C59.5 4.13445 57.9328 1 56 1M56 15C54.0672 15 52.5 11.8656 52.5 8C52.5 4.13445 54.0672 1 56 1M62.7791 9.75233C62.923 9.19233 63 8.60511 63 8C63.0019 6.79609 62.6919 5.61221 62.1001 4.56378M62.7791 9.75233C60.7049 10.9022 58.3716 11.5037 56 11.5C53.5407 11.5 51.2299 10.8661 49.2209 9.75233M49.2209 9.75233C49.0737 9.17987 48.9995 8.59109 49 8C49 6.75167 49.3267 5.57878 49.8999 4.56378M56 1C57.2415 0.999483 58.4608 1.32928 59.5328 1.95555C60.6048 2.58182 61.4909 3.48202 62.1001 4.56378M56 1C54.7585 0.999483 53.5392 1.32928 52.4672 1.95555C51.3952 2.58182 50.5091 3.48202 49.8999 4.56378M62.1001 4.56378C60.4066 6.03061 58.2404 6.83656 56 6.83333C53.6682 6.83333 51.5356 5.97778 49.8999 4.56378" stroke="black" stroke-width="1.5" stroke-linecap="round" stroke-linejoin="round"/>
</svg>
