<svg width="113" height="21" viewBox="0 0 113 21" fill="none" xmlns="http://www.w3.org/2000/svg">
<path d="M20.272 19.32C20.272 19.824 20.076 20.02 19.6 20.02H17.64C17.136 20.02 16.912 19.824 16.912 19.32V11.648C16.912 10.136 16.52 8.988 14.812 8.988C13.748 8.988 12.516 9.548 11.648 10.248C11.704 10.5 11.76 14.252 11.76 14.644V19.32C11.76 19.824 11.564 20.02 11.088 20.02H9.24C8.736 20.02 8.512 19.824 8.512 19.32V11.648C8.512 10.164 8.204 8.988 6.496 8.988C5.404 8.988 4.284 9.604 3.388 10.388V19.32C3.388 19.824 3.164 20.02 2.688 20.02H0.728001C0.224001 20.02 0 19.824 0 19.32V7.084C0 6.636 0.252001 6.44 0.672001 6.44H2.492C2.912 6.44 3.164 6.58 3.192 6.972L3.22 7.672C4.368 6.664 5.88 6.076 7.336 6.076C9.044 6.076 10.248 6.832 10.892 7.896C12.152 6.692 13.972 6.076 15.68 6.076C17.724 6.076 19.012 7.084 19.6 8.176C20.132 9.212 20.272 10.444 20.272 12.236V19.32ZM29.246 2.884C29.246 3.976 28.294 4.648 27.37 4.648C26.446 4.648 25.466 4.032 25.466 2.912C25.466 1.792 26.39 1.12 27.37 1.12C28.322 1.12 29.246 1.764 29.246 2.884ZM29.078 19.32C29.078 19.824 28.854 20.02 28.378 20.02H26.418C25.914 20.02 25.69 19.824 25.69 19.32V7.084C25.69 6.608 25.97 6.44 26.418 6.44H28.378C28.826 6.44 29.078 6.58 29.078 7.084V19.32ZM42.112 6.552C42.112 6.636 42.112 6.72 42.084 6.804L41.776 8.792C41.748 9.044 41.608 9.156 41.384 9.156H41.272C41.048 9.1 40.768 9.072 40.516 9.072C39.564 9.072 38.528 9.576 37.828 10.416V19.32C37.828 19.768 37.632 20.02 37.156 20.02H35.112C34.664 20.02 34.44 19.796 34.44 19.32V10.584V7.14C34.44 6.58 34.72 6.44 35.14 6.44H36.932C37.38 6.44 37.632 6.58 37.632 6.972L37.66 7.868C38.528 6.776 39.48 6.076 41.048 6.076C41.272 6.076 41.58 6.132 41.832 6.188C42.028 6.244 42.112 6.328 42.112 6.552ZM58.954 19.488C58.954 19.824 58.73 20.02 58.394 20.02H57.05C55.594 20.02 54.95 19.32 54.754 18.368H54.698C53.998 19.404 52.178 20.356 50.638 20.356C46.69 20.356 44.898 17.108 44.898 13.468C44.898 8.624 47.81 6.076 50.946 6.076C52.43 6.076 53.83 6.748 54.53 7.7L54.586 6.944C54.614 6.636 54.838 6.44 55.174 6.44H57.134C57.498 6.44 57.722 6.636 57.722 7.056V16.772C57.722 17.164 57.778 17.444 57.89 17.584C57.974 17.668 58.086 17.696 58.226 17.696H58.45C58.786 17.696 58.954 17.808 58.954 18.172V19.488ZM54.334 15.68V10.276C53.774 9.464 52.626 8.848 51.562 8.848C49.854 8.848 48.398 10.304 48.398 13.244C48.398 15.596 49.294 17.584 51.366 17.584C52.738 17.584 53.914 16.548 54.334 15.68ZM83.328 19.32C83.328 19.824 83.132 20.02 82.656 20.02H80.696C80.192 20.02 79.968 19.824 79.968 19.32V11.648C79.968 10.136 79.576 8.988 77.868 8.988C76.804 8.988 75.572 9.548 74.704 10.248C74.76 10.5 74.816 14.252 74.816 14.644V19.32C74.816 19.824 74.62 20.02 74.144 20.02H72.296C71.792 20.02 71.568 19.824 71.568 19.32V11.648C71.568 10.164 71.26 8.988 69.552 8.988C68.46 8.988 67.34 9.604 66.444 10.388V19.32C66.444 19.824 66.22 20.02 65.744 20.02H63.784C63.28 20.02 63.056 19.824 63.056 19.32V7.084C63.056 6.636 63.308 6.44 63.728 6.44H65.548C65.968 6.44 66.22 6.58 66.248 6.972L66.276 7.672C67.424 6.664 68.936 6.076 70.392 6.076C72.1 6.076 73.304 6.832 73.948 7.896C75.208 6.692 77.028 6.076 78.736 6.076C80.78 6.076 82.068 7.084 82.656 8.176C83.188 9.212 83.328 10.444 83.328 12.236V19.32ZM99.862 19.684C99.862 19.936 99.61 20.02 99.33 20.02H96.922C96.418 20.02 96.082 19.88 95.802 19.432L92.218 13.552L91.91 13.832V17.724V19.32C91.91 19.796 91.714 20.02 91.266 20.02H89.166C88.746 20.02 88.522 19.768 88.522 19.348V0.980003C88.522 0.532003 88.69 0.363999 89.11 0.307999L91.154 0.0279999C91.238 0.0279999 91.294 0 91.378 0C91.714 0 91.91 0.168005 91.91 0.644005V5.348V11.872H91.966L95.634 6.832C95.858 6.524 96.026 6.44 96.39 6.44H98.882C99.106 6.44 99.246 6.552 99.246 6.72C99.246 6.804 99.218 6.916 99.134 7.028L95.13 12.068L99.666 19.152C99.778 19.32 99.862 19.516 99.862 19.684ZM112.196 19.18C112.196 19.46 112.056 19.6 111.776 19.712C110.908 20.076 109.76 20.356 108.64 20.356C107.212 20.356 105.98 19.992 105.28 19.18C104.412 18.2 104.384 17.052 104.384 15.008V8.764H103.068C102.536 8.764 102.452 8.652 102.452 8.064V7C102.452 6.664 102.62 6.44 102.956 6.44H104.384V3.388C104.384 2.912 104.636 2.772 105.084 2.716L107.1 2.464H107.24C107.604 2.464 107.772 2.66 107.772 3.08V6.44H110.936C111.272 6.44 111.468 6.552 111.468 6.916V8.232C111.468 8.568 111.244 8.764 110.908 8.764H107.772V15.176C107.772 16.016 107.828 16.632 108.136 17.08C108.388 17.444 108.78 17.668 109.452 17.668C110.152 17.668 110.74 17.5 111.244 17.332C111.356 17.304 111.44 17.276 111.524 17.276C111.72 17.276 111.832 17.388 111.888 17.612L112.168 19.012C112.196 19.096 112.196 19.124 112.196 19.18Z" fill="black"/>
</svg>
