<svg width="130" height="20" viewBox="0 0 130 20" fill="none" xmlns="http://www.w3.org/2000/svg">
<path d="M85.2953 16V4H77.0674V16H85.2953ZM89.4092 17.1429C89.4092 17.9238 89.1395 18.5953 88.6001 19.1571C88.0607 19.7191 87.4162 20 86.6666 20H75.6961C74.9464 20 74.302 19.7191 73.7625 19.1571C73.2232 18.5953 72.9534 17.9238 72.9534 17.1429V2.85712C72.9534 2.07622 73.2232 1.40473 73.7625 0.842926C74.302 0.280926 74.9464 0 75.6961 0H86.6666C87.4162 0 88.0607 0.280926 88.6001 0.842926C89.1395 1.40473 89.4092 2.07622 89.4092 2.85712V17.1429ZM71.3079 20H58.9662C58.2165 20 57.572 19.7191 57.0326 19.1571C56.4933 18.5953 56.2235 17.9238 56.2235 17.1429V0H60.3375V16H71.3079V20ZM50.4641 6.85712V4H42.2362V6.85712H50.4641ZM54.578 20H50.4641V10.8571H42.2362V20H38.1223V0H51.8354C52.585 0 53.2296 0.280926 53.7689 0.842926C54.3083 1.40473 54.578 2.07622 54.578 2.85712V6C54.578 6.7809 54.3083 7.45242 53.7689 8.01422C53.2296 8.57622 52.585 8.85712 51.8354 8.85712C52.585 8.85712 53.2296 9.13801 53.7689 9.70001C54.3083 10.2619 54.578 10.9333 54.578 11.7143V20ZM36.4767 20H24.135C23.3853 20 22.7408 19.7191 22.2014 19.1571C21.6621 18.5953 21.3923 17.9238 21.3923 17.1429V2.85712C21.3923 2.07622 21.6621 1.40473 22.2014 0.842926C22.7408 0.280926 23.3853 0 24.135 0H36.4767V4H25.5063V6.85712H36.4767V10.8571H25.5063V16H36.4767V20ZM20.5696 0L12.8902 20H7.6793L0 0H4.6853L10.2985 14.6857L15.9071 0H20.5696Z" fill="black"/>
<path d="M95.1683 20H91.0543V16H95.1683V20ZM111.898 20H99.5565C98.8068 20 98.1623 19.7191 97.6229 19.1571C97.0835 18.5953 96.8138 17.9238 96.8138 17.1429V2.85712C96.8138 2.07622 97.0835 1.40473 97.6229 0.842926C98.1623 0.280926 98.8068 0 99.5565 0H111.898V4H100.928V16H111.898V20ZM129.999 17.1429C129.999 17.9238 129.73 18.5953 129.19 19.1571C128.651 19.7191 128.006 20 127.257 20H116.286C115.537 20 114.892 19.7191 114.353 19.1571C113.814 18.5953 113.544 17.9238 113.544 17.1429V2.85712C113.544 2.07622 113.814 1.40473 114.353 0.842926C114.892 0.280926 115.537 0 116.286 0H127.257C128.006 0 128.651 0.280926 129.19 0.842926C129.73 1.40473 129.999 2.07622 129.999 2.85712V17.1429ZM125.886 16V4H117.658V16H125.886Z" fill="#1F1A17"/>
</svg>
